<?xml version="1.0" standalone="no"?>
<!DOCTYPE svg PUBLIC "-//W3C//DTD SVG 20010904//EN"
 "http://www.w3.org/TR/2001/REC-SVG-20010904/DTD/svg10.dtd">
<svg version="1.0" xmlns="http://www.w3.org/2000/svg"
 width="616.000000pt" height="707.000000pt" viewBox="0 0 616.000000 707.000000"
 preserveAspectRatio="xMidYMid meet">
<metadata>
Created by potrace 1.16, written by Peter Selinger 2001-2019
</metadata>
<g transform="translate(0.000000,707.000000) scale(0.100000,-0.100000)"
fill="#000000" stroke="none">
<path d="M7 7063 c-10 -9 -9 -193 1 -192 20 3 21 -3 7 -31 -11 -22 -15 -63
-15 -169 l0 -139 27 -6 c59 -12 102 5 103 40 0 13 23 24 48 24 12 0 3 -13 -25
-39 -35 -32 -52 -41 -97 -46 l-55 -7 0 -312 c0 -279 1 -309 15 -291 8 11 17
30 20 41 3 12 18 27 32 35 37 18 72 50 72 65 0 6 7 18 16 25 14 12 18 11 27
-2 9 -14 15 -12 44 20 33 36 40 51 24 51 -4 0 -6 11 -3 25 3 20 0 25 -17 25
-41 0 -20 15 23 17 37 1 52 8 85 40 33 31 41 45 41 74 0 44 15 60 50 53 29 -6
110 28 110 46 0 6 -14 10 -31 10 -26 0 -29 3 -20 14 7 8 22 17 35 20 24 6 40
31 30 47 -3 5 -16 9 -29 9 -25 0 -46 19 -23 21 76 6 88 5 88 -9 0 -18 35 -63
44 -55 3 3 6 13 6 20 0 8 10 27 22 44 19 26 20 31 8 39 -8 6 -22 7 -30 4 -8
-4 -44 -8 -79 -9 -46 -2 -68 -7 -76 -19 -7 -9 -21 -16 -31 -16 -11 0 -41 -16
-68 -35 -51 -36 -66 -42 -66 -25 0 15 42 50 80 66 19 8 52 26 72 41 33 22 44
25 91 19 51 -7 55 -6 60 16 5 17 -1 29 -23 50 -30 27 -36 39 -23 51 10 11 33
-13 33 -34 0 -37 25 -18 49 37 20 47 22 57 10 65 -8 5 -17 9 -21 9 -14 0 -8
30 6 30 8 0 16 7 20 15 7 20 -3 19 -26 -2 -19 -17 -21 -17 -50 0 -16 9 -39 17
-50 17 -13 0 -18 5 -15 14 3 8 -1 20 -10 27 -12 11 -18 9 -34 -11 -10 -14 -19
-30 -19 -36 0 -12 -100 -28 -109 -18 -9 9 31 35 62 41 19 4 32 15 39 32 35 87
45 102 63 95 10 -4 11 -12 5 -29 -12 -31 3 -40 38 -26 15 7 43 10 62 9 l35 -3
1 63 2 62 -49 0 c-45 0 -49 -2 -49 -24 0 -21 -5 -24 -35 -24 -34 0 -45 10 -25
23 20 13 9 25 -22 25 -18 -1 -43 -9 -56 -20 -31 -26 -81 -150 -84 -212 l-3
-52 38 -9 c31 -7 42 -6 57 8 10 9 24 15 29 14 15 -5 -37 -56 -79 -78 -19 -10
-36 -27 -37 -37 -1 -11 -5 -54 -8 -96 -9 -105 -24 -100 -18 5 5 69 3 85 -11
96 -15 12 -15 16 -2 30 21 23 5 51 -18 32 -9 -8 -16 -20 -16 -28 0 -11 -7 -13
-25 -9 -14 4 -48 4 -74 0 -48 -6 -49 -7 -49 -41 0 -45 -18 -66 -27 -31 -3 13
-5 28 -4 34 4 21 -2 26 -16 14 -11 -9 -19 -10 -26 -3 -15 15 11 32 61 38 55 7
69 19 41 37 -11 7 -21 22 -21 33 1 19 1 19 14 2 10 -12 24 -17 43 -15 25 3 28
6 25 37 -3 28 -1 33 13 27 9 -3 21 -6 26 -6 6 0 9 -6 7 -12 -3 -15 10 -20 34
-12 16 5 40 79 31 97 -5 9 -49 9 -82 0 l-24 -6 24 -19 24 -19 -65 7 c-73 7
-83 11 -74 26 4 6 -2 5 -15 -2 -15 -8 -20 -17 -16 -30 7 -22 -12 -37 -28 -21
-20 20 32 101 66 101 16 0 17 -3 7 -15 -11 -13 -6 -15 32 -15 24 0 53 7 64 15
23 17 71 20 76 3 9 -25 29 4 23 33 -5 22 -3 29 9 29 17 0 51 56 38 63 -11 8
-378 8 -385 0z m613 -64 c-7 -12 -17 -18 -27 -15 -8 3 -19 6 -24 6 -5 0 -9 5
-9 11 0 5 4 8 8 5 4 -2 14 -1 22 5 28 17 42 11 30 -12z m-177 -27 c-4 -9 -13
-23 -20 -31 -12 -11 -13 -9 -7 15 9 38 14 45 24 39 5 -3 6 -13 3 -23z m-353 3
c0 -16 -36 -75 -46 -75 -25 0 -24 20 2 50 24 27 44 38 44 25z m306 -323 c-14
-14 -16 -14 -16 -1 0 20 23 44 29 28 2 -6 -4 -18 -13 -27z m57 -37 c-31 -39
-59 -53 -75 -37 -16 16 0 32 33 32 18 0 33 7 41 20 7 11 16 20 21 20 4 0 -5
-16 -20 -35z m-265 -177 c-4 -45 27 -52 35 -8 4 16 11 30 18 30 7 0 8 -11 4
-31 -7 -30 -6 -30 17 -19 12 7 32 20 42 29 15 12 20 13 23 3 4 -10 10 -10 29
3 23 15 23 15 13 -9 -6 -13 -20 -26 -30 -29 -10 -3 -21 -18 -25 -33 -9 -38
-20 -44 -58 -32 -56 17 -110 30 -136 32 -38 2 -32 30 8 34 18 2 35 10 38 18 2
8 6 21 9 29 8 26 15 16 13 -17z m266 -7 c-21 -36 -38 -41 -29 -8 7 22 35 50
43 43 2 -3 -4 -18 -14 -35z m-88 -98 c-7 -17 -8 -17 -17 0 -12 21 -2 44 13 29
6 -6 8 -19 4 -29z m-206 -67 c0 -19 -1 -19 -26 6 -15 15 -23 31 -19 38 10 16
45 -17 45 -44z m190 29 c0 -8 -6 -15 -14 -15 -17 0 -28 14 -19 24 12 12 33 6
33 -9z m-83 -11 c-3 -3 -12 -4 -19 -1 -8 3 -5 6 6 6 11 1 17 -2 13 -5z m-217
-99 c0 -8 -4 -15 -10 -15 -5 0 -7 7 -4 15 4 8 8 15 10 15 2 0 4 -7 4 -15z m90
-55 c0 -5 -22 -10 -50 -10 -27 0 -50 5 -50 10 0 6 23 10 50 10 28 0 50 -4 50
-10z"/>
<path d="M255 6386 c-19 -14 -19 -15 -2 -22 22 -8 30 -1 25 21 -3 14 -5 14
-23 1z"/>
<path d="M697 7063 c-10 -9 -9 -83 1 -83 4 0 16 7 26 15 34 26 39 16 12 -19
-31 -41 -37 -106 -9 -106 15 0 15 -1 0 -18 -22 -24 -21 -32 2 -32 11 0 22 9
26 19 8 25 78 33 100 12 13 -14 15 -13 15 8 0 19 3 21 14 12 15 -12 20 0 34
84 5 26 13 41 24 43 15 3 17 -2 11 -30 -3 -18 -12 -45 -20 -60 -13 -26 -12
-28 7 -28 13 0 24 10 30 26 7 18 15 24 26 20 9 -3 18 -6 20 -6 15 0 -1 -22
-22 -30 -14 -6 -28 -19 -31 -30 -3 -11 -14 -20 -24 -20 -10 0 -21 -4 -24 -10
-3 -5 -17 -10 -31 -10 -27 0 -30 -7 -10 -29 18 -21 30 -61 18 -61 -5 0 -21 9
-35 20 -37 29 -59 25 -86 -18 -15 -22 -26 -32 -29 -24 -2 8 8 30 22 50 38 54
12 53 -40 -1 -46 -48 -55 -74 -29 -83 8 -4 15 -13 15 -21 0 -10 6 -13 16 -9
45 17 64 18 64 2 0 -10 -11 -19 -30 -23 -34 -6 -70 -45 -70 -75 0 -26 -26 -80
-50 -106 -29 -31 -24 -34 17 -10 l36 22 -7 -28 c-6 -25 -5 -27 14 -21 12 4 27
1 35 -5 16 -13 37 -5 33 13 -1 7 3 22 10 35 15 26 44 30 40 5 -2 -14 4 -18 27
-19 44 -2 67 7 61 22 -3 8 3 30 14 48 20 36 18 46 -12 46 -24 0 -23 22 2 45
18 16 20 16 20 2 0 -10 5 -17 11 -17 7 0 8 -19 4 -57 l-7 -58 32 43 c18 24 44
48 56 53 13 4 24 16 24 24 0 9 5 13 10 10 15 -9 12 -45 -4 -45 -20 0 -83 -69
-91 -98 -4 -16 -1 -28 7 -33 15 -10 6 -12 -39 -9 -18 1 -57 -4 -87 -10 -40 -8
-55 -16 -59 -31 -4 -13 -12 -19 -24 -17 -27 5 -28 -36 -2 -72 27 -35 42 -37
76 -10 26 20 53 27 53 13 -1 -16 -72 -53 -98 -52 -40 1 -73 13 -72 24 1 5 -4
11 -11 14 -6 2 -9 -1 -5 -7 3 -5 -9 -27 -28 -48 -29 -32 -34 -47 -39 -103 -3
-37 -7 -71 -9 -76 -2 -6 2 -12 7 -15 6 -3 11 4 13 15 2 12 16 26 35 33 18 7
39 18 47 23 30 18 40 21 58 14 27 -10 -51 -79 -84 -72 -28 5 -43 -11 -23 -24
10 -6 8 -10 -11 -18 -21 -9 -17 -11 27 -8 46 2 50 0 42 -15 -5 -10 -21 -18
-35 -18 -13 0 -41 -7 -61 -15 -44 -18 -43 -18 -43 0 0 22 -27 18 -40 -5 -6
-11 -20 -20 -32 -20 -16 0 -19 5 -15 21 5 19 3 21 -26 15 -41 -8 -67 -46 -31
-46 9 0 14 -6 11 -13 -6 -16 31 -42 54 -39 30 5 31 -28 2 -52 -28 -24 -58 -24
-49 0 3 9 -2 14 -13 14 -13 0 -18 5 -15 18 3 11 -4 21 -21 29 -24 11 -25 10
-25 -22 0 -22 6 -38 18 -44 16 -10 16 -12 -2 -26 -11 -8 -28 -13 -38 -10 -10
3 -27 8 -38 11 -14 4 -22 0 -26 -13 -3 -10 -13 -32 -21 -49 -20 -39 -11 -93
12 -74 8 7 19 26 23 43 12 46 37 49 28 3 -9 -46 7 -76 39 -76 14 0 25 -2 25
-4 0 -2 3 -11 6 -20 5 -13 -1 -16 -25 -16 -24 0 -31 -4 -31 -19 0 -10 -7 -22
-16 -25 -23 -9 -30 1 -17 24 10 14 9 19 -1 23 -8 3 -19 0 -26 -6 -10 -9 -14
-9 -17 1 -7 19 -23 14 -23 -7 0 -23 -25 -46 -35 -32 -3 6 -1 20 5 32 8 14 8
25 2 31 -15 15 -50 -8 -54 -34 -2 -16 -11 -24 -28 -27 l-25 -3 20 22 c20 22
20 22 0 19 -26 -5 -30 -32 -9 -54 17 -16 16 -19 -7 -61 -21 -40 -49 -59 -49
-34 0 14 -37 12 -46 -2 -19 -31 12 -118 37 -103 4 3 12 -3 18 -12 9 -17 11
-17 26 2 9 11 20 30 25 43 7 15 18 22 37 22 l28 -1 -28 -20 c-30 -23 -28 -39
5 -39 13 0 18 -5 15 -14 -6 -16 16 -12 40 6 20 16 100 6 114 -14 8 -10 19 -18
26 -18 17 0 16 -17 -1 -23 -8 -3 -44 -1 -81 4 -60 8 -84 7 -137 -8 -12 -3 -18
1 -18 14 -1 27 -29 -26 -30 -55 0 -35 -24 -21 -28 16 -2 18 -8 30 -13 26 -5
-3 -7 -9 -4 -14 3 -4 -13 -15 -35 -24 l-40 -16 0 -82 c0 -78 12 -98 23 -38 4
24 4 24 6 -2 1 -23 6 -28 27 -28 l27 0 -27 -21 c-31 -25 -26 -39 16 -39 22 0
44 12 80 45 45 40 78 57 78 39 0 -4 -13 -22 -30 -41 -16 -18 -30 -39 -30 -44
0 -13 52 -3 60 11 6 9 55 30 71 30 5 0 9 -4 9 -9 0 -11 -126 -71 -150 -71 -10
0 -23 -7 -30 -15 -13 -16 -7 -20 34 -27 41 -6 18 -23 -42 -32 -58 -8 -87 -26
-42 -26 11 0 23 -7 27 -16 3 -8 17 -20 31 -25 18 -7 22 -13 15 -20 -8 -8 -25
-8 -60 0 -74 18 -76 18 -80 -9 -10 -63 -10 -145 1 -152 8 -6 7 -8 -1 -8 -9 0
-13 -18 -13 -55 0 -57 8 -67 31 -39 11 13 10 17 -4 26 -13 7 -15 13 -7 29 16
28 30 23 30 -11 0 -32 14 -40 24 -15 6 16 26 21 26 7 0 -5 -17 -30 -37 -56
-34 -44 -36 -49 -20 -61 21 -15 12 -45 -13 -45 -27 0 -34 -17 -16 -36 9 -9 13
-20 10 -25 -4 -6 14 -8 48 -4 53 7 53 7 30 -12 l-23 -19 21 -19 c16 -14 23
-16 32 -7 14 14 42 16 33 2 -9 -15 -106 -61 -116 -54 -5 3 -9 12 -9 21 0 10
-6 13 -16 9 -9 -3 -18 -6 -20 -6 -2 0 -4 -80 -3 -177 1 -160 2 -175 14 -147
13 30 42 51 53 39 3 -3 -2 -13 -12 -24 -15 -17 -15 -19 -1 -25 13 -5 13 -9 3
-25 -17 -28 -6 -34 30 -15 29 14 32 20 32 61 0 41 3 46 30 56 37 14 38 24 5
37 -33 12 -41 35 -25 66 18 33 3 44 -20 14 -21 -28 -26 -15 -9 23 10 21 14 23
35 13 15 -7 24 -21 26 -40 4 -35 27 -47 35 -17 3 11 18 27 34 35 33 16 35 12
18 -47 -6 -22 -8 -41 -6 -44 3 -2 27 2 53 10 46 13 49 16 51 48 2 45 -12 59
-58 59 -21 0 -41 5 -44 10 -10 16 26 24 48 11 16 -10 21 -10 28 1 5 7 9 15 9
18 0 3 21 11 48 18 26 8 55 18 65 23 34 19 17 -10 -20 -32 -21 -12 -40 -24
-42 -25 -1 -2 0 -25 4 -53 l7 -50 39 19 c21 11 46 20 54 20 9 0 15 6 12 13 -2
6 -17 12 -33 12 -40 0 -39 29 1 33 17 2 34 10 38 18 13 23 32 16 44 -16 7 -19
18 -30 31 -30 24 0 38 -30 20 -42 -7 -4 -22 -8 -33 -8 -11 0 -33 -7 -49 -15
-15 -8 -38 -15 -51 -15 -30 0 -95 -28 -95 -41 0 -6 6 -20 12 -32 7 -12 18 -38
23 -57 10 -31 15 -35 41 -32 29 2 104 -27 104 -40 0 -13 -38 -9 -43 5 -4 8
-12 4 -25 -12 -14 -18 -32 -25 -71 -29 -41 -4 -51 -2 -49 9 2 8 -5 14 -17 14
-11 0 -21 -8 -23 -17 -2 -10 3 -18 11 -18 14 0 33 -31 40 -65 2 -11 9 -19 17
-17 7 2 17 -3 21 -10 7 -10 9 -9 9 5 0 12 8 17 31 17 26 0 30 -3 24 -17 -3
-10 -9 -31 -11 -48 -11 -65 -15 -75 -28 -75 -8 0 -16 5 -18 11 -4 13 -84 -38
-92 -59 -6 -13 13 -52 25 -52 4 0 10 11 13 25 5 21 12 25 41 25 19 0 35 5 35
10 0 6 9 10 20 10 13 0 25 12 34 34 10 24 35 48 83 80 45 30 79 62 101 95 18
28 38 51 44 51 10 0 -3 -24 -54 -94 -15 -21 -28 -50 -28 -64 l0 -25 25 23 c34
32 31 12 -5 -38 -16 -23 -30 -46 -30 -51 0 -5 -5 -11 -11 -13 -6 -2 -12 -15
-13 -28 -1 -18 -8 -26 -23 -28 -17 -3 -20 1 -16 17 3 10 16 29 29 42 23 21 34
57 15 44 -5 -3 -11 9 -13 27 l-3 33 -42 -39 c-24 -21 -43 -44 -43 -51 0 -8
-20 -24 -45 -36 -25 -12 -46 -27 -46 -33 -1 -6 -2 -16 -3 -22 0 -6 -15 -23
-32 -37 -23 -19 -34 -23 -42 -15 -8 8 -14 4 -22 -14 -7 -15 -26 -29 -46 -36
-19 -5 -32 -7 -30 -4 2 4 0 17 -5 30 l-9 23 -46 -31 c-25 -18 -48 -38 -51 -46
-3 -8 -9 -14 -15 -14 -13 0 1 41 23 66 11 11 19 27 19 36 0 9 6 21 13 27 17
14 40 115 33 139 -4 11 -1 19 6 20 25 2 103 13 126 18 30 6 31 49 0 57 -18 5
-19 8 -9 21 8 9 18 13 25 9 6 -4 5 1 -3 10 -18 22 -31 22 -31 -1 0 -11 -9 -27
-19 -36 -11 -10 -17 -25 -14 -36 4 -15 1 -18 -16 -13 -32 8 -35 21 -8 45 32
30 27 78 -11 96 -47 22 -63 11 -46 -32 5 -13 9 -14 20 -5 11 9 15 8 20 -5 9
-25 -3 -46 -27 -46 -17 0 -20 -4 -16 -22 3 -13 -1 -32 -8 -42 -8 -10 -12 -22
-9 -27 2 -4 -7 -19 -21 -33 l-25 -25 0 24 c0 13 8 29 17 34 10 6 14 11 8 11
-5 0 -3 5 5 10 13 8 13 11 -1 26 -16 15 -19 14 -40 -15 -12 -17 -27 -31 -32
-31 -6 0 -3 8 6 18 20 22 22 62 4 62 -7 0 -24 -8 -37 -17 -14 -10 -35 -16 -47
-15 -32 5 -31 -36 2 -88 25 -40 33 -80 16 -80 -6 0 -13 5 -16 10 -3 6 -11 10
-17 10 -13 0 -3 -107 12 -125 6 -8 5 -18 -5 -31 -8 -10 -15 -25 -15 -31 0 -18
37 -16 48 3 8 14 13 13 46 -5 20 -12 41 -19 46 -16 5 3 27 1 50 -4 33 -7 42
-6 47 5 3 8 13 14 23 14 22 0 70 44 70 65 0 8 5 15 11 15 6 0 9 -7 5 -15 -3
-9 0 -15 9 -15 8 0 15 7 15 15 0 19 29 19 36 0 4 -8 14 -15 23 -15 9 0 27 -7
39 -16 20 -14 22 -14 22 4 0 11 7 25 14 32 8 6 20 27 26 46 6 19 15 34 19 34
11 0 2 -141 -9 -155 -6 -7 -7 -15 -3 -18 3 -4 0 -13 -7 -22 -11 -13 -13 -55
-7 -138 1 -15 7 -31 14 -35 12 -8 6 -57 -14 -109 -3 -7 -2 -20 1 -29 5 -14 15
-15 57 -10 39 5 50 4 47 -5 -6 -18 -50 -28 -145 -34 l-82 -4 0 58 c1 73 26
121 64 121 26 0 44 25 29 40 -5 4 -27 5 -49 1 -36 -6 -40 -9 -37 -34 1 -15 -2
-27 -8 -27 -5 0 -10 14 -10 30 0 36 -6 37 -29 8 -12 -14 -24 -19 -36 -15 -15
7 -16 9 -2 30 8 12 17 36 21 53 l7 31 -68 -1 c-55 -1 -71 -5 -85 -21 -22 -25
-22 -35 -2 -35 11 0 14 -6 9 -21 -6 -17 -3 -20 17 -17 26 3 38 45 17 59 -22
13 -7 17 41 10 43 -6 44 -7 24 -21 -12 -8 -29 -30 -38 -47 -12 -24 -23 -33
-41 -33 -22 0 -24 -2 -13 -19 9 -15 9 -23 0 -34 -9 -10 -10 -22 -3 -40 12 -32
-1 -43 -21 -19 -23 27 -49 72 -42 72 3 0 -1 11 -10 25 -9 13 -16 31 -16 40 0
27 -20 16 -27 -16 -3 -17 -12 -33 -20 -36 -20 -8 -30 6 -13 18 12 8 11 9 -5 7
-14 -2 -21 -12 -23 -36 -2 -17 -8 -32 -14 -32 -6 0 -8 13 -6 30 3 17 1 33 -4
36 -4 3 -8 -17 -8 -45 0 -54 16 -74 36 -47 10 15 15 15 33 4 12 -7 21 -15 21
-19 0 -3 16 -12 35 -19 20 -8 34 -19 31 -26 -3 -7 2 -20 9 -31 13 -17 14 -16
15 10 0 25 4 28 27 26 57 -4 63 -1 63 34 0 36 20 87 34 87 4 0 5 -11 2 -24 -3
-14 -3 -32 0 -40 8 -20 44 -21 44 -2 0 18 17 29 30 21 8 -5 8 -11 1 -19 -6 -7
-13 -31 -17 -55 -5 -33 -12 -45 -33 -52 -27 -11 -95 -78 -86 -87 2 -3 19 2 37
11 31 15 34 15 40 -1 13 -34 8 -64 -12 -69 -22 -6 -83 -91 -74 -104 3 -5 12
-9 20 -9 8 0 14 -10 14 -24 0 -16 7 -27 20 -31 17 -5 20 -15 20 -61 0 -31 -4
-54 -11 -54 -5 0 -8 -4 -5 -9 3 -5 -1 -15 -10 -22 -12 -9 -17 -10 -23 -1 -10
17 -68 -27 -80 -61 -8 -22 -6 -35 10 -64 11 -19 18 -45 16 -57 -4 -20 -4 -20
-6 2 0 12 -5 22 -9 22 -18 0 -20 -13 -5 -37 13 -19 13 -23 2 -21 -9 2 -13 -4
-11 -14 2 -12 -2 -16 -13 -12 -8 4 -17 -1 -21 -10 -3 -9 -11 -16 -16 -16 -6 0
-8 7 -4 15 4 11 -2 15 -22 15 -50 0 -98 81 -57 96 13 5 12 11 -6 35 -11 16
-25 29 -30 29 -15 0 -11 -150 4 -150 18 -1 48 -46 41 -63 -3 -9 -16 -18 -30
-21 -30 -8 -32 -38 -2 -51 32 -15 33 -31 4 -60 -18 -18 -26 -35 -24 -55 2 -24
5 -27 16 -17 12 9 14 8 10 -8 -2 -11 -9 -19 -16 -18 -9 2 -12 -222 -12 -947
l0 -950 494 0 494 0 7 113 c4 65 2 165 -5 237 -6 69 -14 163 -17 210 -3 47 -9
90 -13 95 -10 12 -44 105 -76 210 -14 44 -30 89 -35 101 -13 25 -47 184 -60
279 -5 39 -14 83 -19 98 -5 15 -7 34 -4 42 4 8 1 15 -5 15 -6 0 -11 8 -11 18
0 14 -4 12 -20 -8 -10 -14 -22 -21 -26 -17 -4 4 -13 2 -21 -5 -22 -18 -27 -1
-15 53 12 49 11 51 -16 74 -15 13 -31 25 -37 25 -24 2 -46 53 -51 118 -5 61
-3 71 21 107 15 22 46 55 69 72 52 40 67 83 65 181 -1 38 4 78 10 90 8 15 8
21 -1 24 -8 3 -6 11 4 29 21 32 30 76 18 84 -6 3 -6 14 0 28 10 25 50 208 50
232 0 29 -18 15 -39 -30 -12 -25 -26 -43 -31 -40 -12 7 21 74 54 109 19 21 23
36 22 78 -1 43 3 53 22 66 16 11 22 22 18 36 -5 20 -4 20 9 3 13 -18 14 -17
28 10 8 15 13 48 11 73 -1 25 3 78 10 118 7 39 10 72 7 72 -7 0 -39 -48 -66
-95 -9 -16 -14 -22 -11 -12 3 10 6 24 6 31 0 7 15 38 34 69 19 31 37 76 41 99
4 24 22 72 41 108 18 36 44 108 59 160 33 119 47 136 70 87 30 -64 101 -110
196 -128 100 -19 109 -21 109 -31 0 -5 3 -7 8 -5 4 3 84 8 179 11 252 9 644
64 759 107 125 47 232 144 354 324 19 28 49 65 67 83 47 47 73 92 123 217 37
93 44 121 44 181 1 87 17 110 82 120 51 7 143 -12 151 -32 3 -8 14 -14 24 -14
22 0 34 36 26 77 -3 17 2 37 12 53 10 14 39 74 67 133 37 81 54 109 71 113 13
4 21 10 18 14 -5 8 114 35 121 27 2 -2 -17 -16 -43 -30 -67 -36 -105 -74 -133
-132 -23 -46 -25 -61 -24 -195 0 -162 24 -318 76 -494 44 -150 44 -146 9 -106
-47 53 -126 221 -168 355 -21 66 -42 121 -48 123 -11 2 -12 -80 -2 -148 8 -48
11 -128 6 -145 -7 -23 14 -112 34 -145 12 -19 21 -38 19 -42 -1 -5 14 -38 33
-75 19 -37 35 -71 35 -76 0 -5 7 -15 16 -24 8 -9 13 -21 10 -29 -3 -7 0 -15 7
-18 9 -3 9 -5 0 -5 -7 -1 -13 -8 -13 -16 0 -8 -6 -15 -12 -15 -7 0 -24 -17
-38 -38 -14 -20 -29 -40 -35 -44 -5 -4 -11 -12 -11 -18 -1 -5 -3 -12 -4 -15
-1 -3 -3 -8 -4 -12 -4 -23 -30 -73 -37 -73 -5 0 -5 -7 -2 -17 4 -11 3 -14 -5
-9 -7 4 -12 2 -12 -3 0 -6 -7 -11 -15 -11 -8 0 -15 -3 -15 -7 0 -5 -20 -29
-45 -56 -25 -26 -48 -59 -51 -72 -6 -26 -39 -51 -61 -47 -27 6 -9 -30 20 -41
11 -4 21 -15 24 -26 4 -15 18 -19 96 -24 101 -6 127 -13 127 -32 0 -7 4 -15 8
-17 11 -4 52 -86 52 -103 0 -8 7 -15 16 -15 8 0 22 -15 30 -32 28 -64 50 -91
66 -82 16 10 48 -8 48 -27 0 -10 3 -18 8 -17 4 1 22 -2 40 -6 25 -6 31 -11 23
-19 -20 -20 -12 -23 47 -23 l57 1 -2 57 c-2 47 0 56 13 54 9 -1 20 -10 26 -19
5 -9 16 -17 24 -17 9 0 12 5 8 12 -4 6 1 17 11 25 17 12 17 13 2 13 -9 0 -17
5 -17 10 0 6 5 10 11 10 32 0 49 63 28 101 -6 11 -12 28 -14 38 -2 10 -13 38
-24 62 -12 23 -21 52 -21 64 0 12 -12 40 -27 61 -39 56 -53 82 -53 98 0 7 -7
19 -15 26 -8 7 -14 18 -13 24 2 10 -26 79 -53 129 -7 13 -5 17 10 17 20 0 22
14 7 40 -5 8 -6 12 -1 8 4 -4 14 -3 21 3 16 13 34 4 34 -17 0 -9 10 -14 28
-14 33 0 46 -9 56 -35 4 -11 10 -15 14 -10 12 17 63 17 132 0 96 -24 120 -31
170 -50 25 -9 50 -18 55 -19 50 -12 102 -30 111 -37 5 -4 44 -10 85 -13 41 -3
100 -14 132 -25 32 -11 62 -20 65 -20 27 4 63 -3 75 -15 20 -20 94 -26 82 -6
-3 5 1 10 9 10 23 0 63 -38 70 -66 8 -29 27 -31 43 -5 10 15 21 17 74 14 47
-4 67 -10 76 -23 11 -15 19 -17 45 -9 43 12 48 12 48 -5 0 -8 7 -16 15 -20 8
-3 15 -1 15 4 0 6 9 10 21 10 18 0 20 -4 14 -31 -4 -19 -3 -34 4 -38 14 -9 -2
-67 -18 -64 -23 6 -10 -8 22 -22 17 -8 26 -14 19 -15 -9 0 -12 -10 -10 -27 2
-22 -2 -28 -24 -34 -21 -5 -28 -4 -28 7 0 8 -4 14 -10 14 -5 0 -10 -6 -10 -14
0 -8 -16 -31 -35 -50 -19 -20 -35 -38 -35 -39 0 -2 17 -4 37 -4 21 0 45 -1 54
-2 22 -1 32 -40 13 -48 -20 -7 -74 16 -74 32 0 11 -7 11 -37 0 -21 -8 -51 -16
-66 -20 -19 -4 -27 -11 -24 -19 3 -8 1 -18 -5 -24 -6 -6 -16 -21 -22 -34 -6
-13 -23 -25 -36 -26 -45 -7 -78 -53 -59 -83 6 -10 9 -4 9 18 0 26 3 30 20 26
12 -3 20 0 20 6 0 7 5 9 10 6 6 -3 8 -16 4 -29 -3 -15 -1 -23 8 -24 51 -4 74
-24 42 -36 -10 -4 -25 1 -36 11 -15 14 -19 14 -16 3 2 -12 -6 -14 -34 -12 -38
3 -38 3 -38 -35 0 -47 7 -57 44 -61 23 -3 27 0 22 13 -3 9 -6 19 -6 22 0 3 -6
0 -14 -6 -12 -10 -13 -8 -9 11 9 34 24 39 44 15 18 -21 18 -21 19 -2 1 18 2
18 11 -3 5 -13 13 -21 19 -17 5 3 18 1 27 -4 13 -7 14 -10 4 -11 -8 0 -11 -3
-8 -6 4 -4 13 -1 22 6 12 10 15 10 15 -3 0 -9 -4 -19 -10 -22 -6 -3 -10 -17
-10 -31 0 -13 -4 -24 -10 -24 -5 0 -10 7 -10 16 0 22 -27 48 -33 31 -2 -6 -8
-8 -13 -4 -5 5 -1 15 10 23 19 14 19 14 -2 14 -15 0 -22 -6 -22 -19 0 -13 -9
-21 -31 -26 -21 -5 -29 -12 -26 -23 2 -10 9 -16 15 -14 7 1 15 -5 18 -13 3 -8
10 -12 15 -9 5 3 9 -4 9 -14 0 -11 7 -22 15 -26 9 -3 12 -12 8 -21 -5 -14 -8
-14 -15 -3 -8 10 -9 10 -5 -2 2 -8 8 -14 13 -13 5 1 16 3 24 5 9 2 15 -4 15
-17 0 -14 -6 -19 -17 -17 -11 2 -18 -3 -18 -13 0 -9 9 -15 23 -16 16 0 18 -2
7 -7 -16 -7 -20 -18 -23 -64 -1 -15 -8 -28 -14 -28 -8 0 -13 -14 -12 -37 0
-37 0 -38 16 -15 16 23 33 29 33 13 0 -5 -7 -16 -15 -25 -9 -8 -16 -18 -15
-21 1 -21 -1 -25 -10 -20 -5 3 -10 -3 -10 -13 0 -12 -9 -22 -22 -27 -14 -4
-18 -8 -10 -12 6 -2 12 -9 12 -14 0 -14 -35 -45 -48 -43 -7 1 -8 0 -2 -3 5 -2
10 -15 10 -28 0 -33 19 -41 37 -16 14 21 15 22 31 3 10 -10 24 -17 32 -15 10
3 8 -1 -4 -11 -16 -13 -22 -13 -28 -3 -6 9 -8 8 -8 -4 0 -9 -9 -19 -21 -22
-15 -4 -20 -13 -19 -34 1 -15 2 -34 1 -40 -2 -24 -41 -13 -71 20 -25 27 -28
29 -23 10 3 -12 10 -21 16 -20 6 1 11 -7 12 -18 5 -67 4 -65 28 -56 12 5 21
16 19 25 -3 18 6 20 27 7 13 -8 13 -12 1 -26 -12 -14 -12 -18 0 -25 11 -7 11
-14 3 -33 -12 -25 -26 -29 -50 -14 -14 9 -18 28 -5 26 4 -1 14 -1 22 0 12 1
11 4 -3 12 -13 8 -22 7 -32 -1 -8 -6 -19 -9 -26 -5 -8 6 -7 10 2 16 11 7 10 9
-3 9 -9 0 -19 -6 -21 -12 -3 -7 -6 -4 -6 7 -1 12 5 27 12 34 10 10 3 11 -33 9
-38 -3 -46 -7 -48 -26 -2 -13 2 -22 10 -22 10 0 9 -3 -2 -11 -11 -8 -12 -12
-2 -16 6 -2 12 -12 13 -21 0 -14 3 -13 15 4 19 27 54 22 47 -7 -3 -10 0 -19 6
-19 6 0 11 -7 11 -15 0 -8 -5 -15 -11 -15 -6 0 -9 -6 -6 -12 2 -7 11 -12 21
-10 9 2 16 -2 16 -9 0 -6 -8 -9 -20 -6 -11 3 -20 0 -20 -6 0 -8 -4 -7 -9 2 -5
8 -11 9 -15 3 -3 -6 -2 -13 3 -17 6 -3 8 -12 5 -20 -4 -8 -10 -12 -15 -9 -13
8 -11 -33 3 -57 11 -17 11 -23 1 -26 -7 -3 -13 -15 -13 -28 0 -13 -4 -26 -10
-30 -10 -6 -2 -36 14 -47 7 -5 7 -8 -1 -8 -7 0 -13 -9 -13 -19 0 -11 -6 -26
-13 -33 -17 -17 -20 -67 -6 -85 10 -11 8 -12 -6 -7 -13 5 -16 4 -11 -4 4 -7 2
-12 -3 -12 -6 0 -11 -4 -11 -9 0 -5 9 -7 21 -4 19 5 20 4 8 -16 -19 -29 -39
-27 -39 4 0 15 -6 25 -15 25 -19 0 -34 -28 -27 -53 3 -14 1 -18 -9 -15 -8 3
-19 -2 -26 -11 -9 -13 -10 -11 -6 12 4 22 2 26 -11 21 -18 -7 -22 -27 -14 -65
2 -6 -5 -13 -15 -14 -11 -2 -17 1 -14 9 3 6 -1 20 -9 30 -11 16 -10 23 7 48
23 31 21 42 -4 32 -10 -3 -13 -12 -9 -22 5 -15 4 -15 -12 1 -23 23 -51 23 -41
0 12 -29 11 -56 -3 -61 -9 -2 -13 3 -12 14 4 38 0 69 -8 57 -4 -6 -14 -11 -22
-11 -44 3 -62 -3 -56 -17 6 -17 -2 -19 -24 -5 -9 5 -19 5 -27 -2 -7 -6 -14 -7
-14 -2 -4 24 -6 42 -8 79 -1 30 -4 36 -11 25 -8 -13 -10 -12 -10 3 0 9 -7 17
-16 17 -13 0 -14 -3 -4 -15 12 -15 6 -35 -11 -35 -5 0 -9 6 -9 14 0 8 -7 16
-15 20 -8 3 -15 1 -15 -3 0 -5 6 -12 13 -14 6 -3 2 -6 -9 -6 -22 -1 -39 -25
-29 -41 3 -4 -2 -10 -10 -14 -8 -3 -15 -2 -15 2 0 11 -40 8 -72 -6 -18 -7 -28
-19 -28 -33 0 -19 -4 -21 -37 -15 -21 3 -32 3 -25 0 10 -5 10 -9 1 -20 -9 -11
-7 -14 10 -14 17 0 21 -6 21 -34 0 -21 -6 -36 -15 -40 -8 -3 -15 -14 -15 -25
0 -22 -27 -41 -59 -41 -11 0 -25 -8 -30 -17 -9 -16 -10 -16 -11 3 0 11 7 29
15 40 12 16 16 17 24 4 11 -17 27 -7 16 10 -4 7 -17 10 -30 8 -19 -4 -22 -1
-19 24 3 20 -1 28 -12 28 -11 0 -14 -6 -10 -16 4 -10 2 -13 -6 -8 -7 5 -9 -1
-4 -19 3 -14 1 -29 -4 -32 -6 -4 -8 -11 -5 -16 4 -5 2 -9 -3 -9 -12 0 -22 -38
-15 -56 3 -8 11 -14 18 -14 7 0 15 -9 18 -20 3 -10 2 -18 -2 -17 -11 3 -71
-25 -71 -34 0 -5 -6 -9 -14 -9 -16 0 -10 -40 8 -52 6 -4 7 -10 3 -15 -5 -4
-12 -1 -17 7 -5 8 -11 12 -14 9 -10 -10 -24 -102 -20 -127 3 -16 1 -23 -8 -20
-7 3 -12 15 -10 26 2 12 -2 22 -7 22 -6 0 -11 7 -11 16 0 8 5 12 10 9 6 -3 10
1 10 9 0 9 -7 16 -15 16 -8 0 -14 3 -14 7 4 28 -3 54 -14 51 -16 -6 -20 -125
-5 -155 6 -13 9 -26 5 -29 -8 -9 -67 18 -61 28 3 5 10 6 15 3 5 -4 9 -1 9 5 0
7 -8 9 -19 5 -13 -4 -23 0 -30 12 -14 26 -25 9 -11 -17 9 -16 9 -25 1 -29 -6
-4 -12 -24 -13 -46 -2 -24 -9 -40 -18 -42 -11 -3 -11 -2 -3 4 7 5 9 14 4 22
-6 10 -15 6 -37 -16 -25 -24 -29 -26 -32 -10 -2 10 -9 16 -15 14 -15 -5 -22
-67 -8 -67 6 0 11 -14 11 -31 0 -24 -4 -30 -15 -25 -8 3 -22 9 -30 12 -8 3
-15 1 -15 -6 0 -6 -4 -8 -10 -5 -5 3 -10 -3 -10 -15 0 -14 -4 -19 -12 -14 -9
5 -9 2 1 -9 12 -15 10 -17 -16 -17 -19 0 -30 -5 -30 -15 0 -8 4 -12 8 -9 4 2
10 0 14 -5 3 -5 0 -13 -8 -18 -7 -4 -13 -17 -13 -28 1 -14 -5 -19 -18 -17 -13
2 -16 -1 -10 -10 6 -10 5 -11 -7 -1 -12 10 -20 9 -39 -4 -24 -17 -140 -27
-140 -12 0 5 -5 9 -10 9 -6 0 -9 -3 -9 -7 1 -5 1 -15 0 -23 -1 -13 -3 -13 -14
1 -7 9 -20 15 -30 13 -15 -2 -16 0 -6 12 9 12 6 14 -20 14 -21 0 -31 5 -31 15
0 20 -17 19 -28 -2 -16 -28 -69 -25 -92 5 -20 25 -21 25 -36 6 -14 -18 -14
-18 -4 4 10 20 8 26 -7 37 -13 10 -21 10 -31 2 -11 -9 -11 -13 4 -24 17 -12
16 -13 -4 -13 -13 0 -22 -6 -22 -15 0 -8 -5 -15 -11 -15 -7 0 -9 10 -5 27 8
30 -11 48 -31 31 -7 -5 -29 -12 -50 -14 -20 -2 -39 -8 -43 -14 -8 -12 -40 -3
-40 12 0 5 5 6 12 2 7 -4 8 -3 4 4 -4 7 -16 10 -26 9 -25 -4 -38 -17 -18 -17
19 0 30 -36 14 -49 -6 -5 -30 -9 -53 -9 -33 -1 -43 3 -48 19 -8 25 -35 25 -35
-1 0 -19 -10 -24 -39 -21 -7 2 -10 -2 -6 -8 3 -6 -1 -11 -10 -11 -9 0 -14 4
-11 9 9 14 -51 18 -75 5 -22 -11 -22 -12 -3 -17 10 -2 -1 -5 -25 -6 -43 -1
-44 -1 -26 19 15 17 16 20 3 20 -19 0 -42 -26 -34 -39 3 -5 0 -12 -6 -15 -7
-3 -4 -4 8 -1 12 3 26 -1 33 -8 17 -21 382 -24 403 -4 8 8 24 18 36 21 12 4
22 16 22 26 0 10 7 20 15 24 9 3 15 0 15 -9 0 -8 -4 -15 -8 -15 -4 0 -13 -14
-19 -30 l-11 -30 144 0 c79 0 144 4 144 8 0 5 7 9 15 9 8 0 12 -4 9 -9 -3 -4
58 -8 135 -8 102 0 141 3 144 13 4 9 6 9 6 0 1 -10 309 -13 1506 -13 l1505 0
0 2050 0 2051 -21 -11 c-17 -9 -23 -8 -35 7 -7 10 -14 21 -14 26 0 18 -56 5
-82 -20 -21 -20 -31 -24 -39 -16 -18 18 68 93 106 92 17 -1 40 2 52 6 16 5 22
2 26 -12 3 -10 5 37 6 104 1 99 -2 121 -13 117 -7 -3 -19 -16 -26 -29 -7 -13
-21 -26 -31 -28 -11 -3 -19 -12 -19 -21 0 -9 -6 -16 -14 -16 -8 0 -18 -5 -22
-12 -4 -7 -3 -8 4 -4 7 4 12 1 12 -6 0 -7 -19 -21 -42 -31 -36 -16 -43 -17
-56 -3 -13 13 -12 18 7 42 11 14 21 35 21 45 0 22 54 65 93 75 16 3 31 13 34
20 3 8 16 14 29 14 23 0 24 3 24 65 l0 64 -60 -31 c-50 -25 -60 -35 -60 -56 0
-14 -11 -44 -24 -67 -21 -36 -31 -43 -76 -53 -65 -15 -93 -15 -108 0 -22 22
-13 30 24 23 51 -9 94 10 101 47 3 15 10 31 14 34 5 3 9 24 9 46 0 40 0 41
-20 23 -24 -22 -59 -13 -40 10 7 8 10 27 8 43 -3 21 0 28 13 28 10 0 16 -3 13
-7 -4 -8 20 -19 42 -19 17 0 8 27 -19 58 -25 27 -80 30 -99 5 -24 -32 -77 -63
-105 -62 -16 1 -40 -2 -55 -6 -27 -7 -27 -6 -18 26 15 50 12 79 -6 79 -23 0
-13 32 14 46 13 6 38 28 56 48 19 20 40 36 47 36 11 0 14 17 13 68 -2 93 -2
92 -25 92 -28 0 -21 34 9 38 12 2 22 10 22 18 0 8 18 18 44 25 28 7 51 21 65
40 12 16 43 38 69 50 33 15 62 39 100 86 l52 66 0 93 c0 57 -4 94 -10 94 -6 0
-8 -11 -4 -25 5 -19 2 -25 -10 -25 -9 0 -16 8 -16 19 0 45 -61 38 -80 -8 -7
-17 -46 -66 -89 -109 -56 -59 -86 -83 -116 -91 -54 -15 -105 -14 -105 2 0 7
-9 18 -20 25 -16 10 -20 23 -20 65 0 32 6 61 16 75 8 12 18 48 21 80 6 55 25
100 112 267 53 104 60 113 131 159 62 42 86 51 158 63 l32 5 0 539 0 539 -737
-2 c-730 -3 -738 -3 -739 -23 0 -29 -15 -56 -25 -49 -5 3 -5 13 1 24 22 41 14
50 -49 50 -58 0 -60 -1 -66 -30 -4 -17 -11 -27 -17 -24 -5 3 -7 17 -4 30 6 22
3 24 -28 24 -19 0 -37 -6 -39 -12 -4 -10 -6 -10 -6 0 -1 9 -142 12 -671 12
-626 0 -670 -1 -680 -17 -10 -17 -10 -17 -20 0 -11 17 -80 25 -80 9 0 -4 -16
-14 -35 -21 -29 -10 -35 -17 -35 -42 0 -21 5 -29 18 -29 11 0 18 -8 19 -22 1
-12 18 -37 37 -57 30 -29 37 -32 50 -22 9 8 16 9 16 3 0 -5 -10 -16 -22 -24
-20 -13 -28 -13 -56 -1 -23 9 -32 19 -28 28 4 12 -5 15 -44 15 -28 0 -50 5
-50 10 0 6 5 10 10 10 6 0 14 10 19 23 10 26 24 139 14 117 -3 -8 -14 -21 -24
-30 -26 -22 -34 -59 -15 -66 20 -8 21 -24 2 -24 -7 0 -20 -10 -29 -22 -12 -19
-17 -21 -29 -10 -11 11 -9 16 11 31 14 11 21 23 16 30 -5 9 -11 9 -23 -2 -10
-8 -24 -14 -32 -14 -8 0 -25 -3 -37 -7 -19 -6 -23 -4 -23 13 0 18 -6 21 -45
21 -25 0 -45 5 -45 10 0 6 7 10 15 10 19 0 40 43 32 64 -9 24 -97 23 -97 -1 0
-15 -1 -15 -13 2 -18 24 -26 10 -34 -55 -6 -52 -23 -80 -23 -38 0 14 -6 33
-14 44 -12 16 -17 17 -28 5 -10 -11 -10 -14 0 -18 6 -3 12 -13 12 -23 0 -9 7
-23 15 -30 20 -17 19 -50 -2 -66 -17 -12 -17 -13 -1 -19 10 -4 32 -2 49 4 40
14 72 14 64 1 -3 -5 -14 -10 -24 -10 -10 0 -24 -7 -32 -16 -24 -30 -113 -68
-160 -69 l-46 -2 14 29 c8 15 18 26 23 23 12 -7 100 53 100 69 0 20 -23 36
-53 36 -27 0 -28 2 -22 30 8 35 -3 38 -32 10 -14 -12 -19 -27 -16 -40 3 -11 0
-20 -6 -20 -6 0 -11 5 -11 11 0 6 -6 9 -12 6 -7 -2 -11 -14 -10 -27 3 -17 0
-21 -11 -17 -8 3 -20 0 -26 -6 -8 -8 -11 -5 -11 10 0 28 -9 33 -40 21 l-25 -9
28 -15 c33 -18 34 -37 4 -61 -13 -10 -26 -26 -30 -35 -3 -10 -11 -18 -17 -18
-5 0 -10 -6 -10 -14 0 -11 7 -12 28 -7 15 5 26 15 26 23 -1 10 5 14 17 11 14
-4 18 -1 14 9 -3 8 1 21 10 28 12 10 15 10 15 -3 0 -8 6 -17 13 -20 18 -6 -10
-37 -34 -37 -12 0 -19 -7 -19 -19 0 -11 -4 -23 -10 -26 -5 -3 -10 -1 -10 6 0
7 -13 10 -35 7 -32 -4 -37 -1 -52 29 -17 37 -33 40 -87 18 -35 -15 -36 -15
-36 7 0 43 36 66 72 47 17 -9 19 -8 16 13 -3 22 -7 23 -70 21 -54 -1 -68 1
-68 13 0 9 -5 12 -11 8 -7 -4 -10 0 -7 11 1 10 17 25 35 34 26 13 33 24 38 56
7 41 29 77 55 88 8 4 2 5 -15 2 -78 -14 -120 -16 -105 -6 11 8 1 11 -41 11
-55 0 -56 -1 -54 -27 3 -50 5 -54 17 -47 8 5 9 2 5 -10 -4 -10 -1 -19 8 -22
12 -5 12 -9 -3 -30 -23 -32 -28 -30 -27 12 1 31 0 34 -10 20 -17 -23 -38 -21
-30 4 4 11 2 20 -4 20 -6 0 -11 -6 -11 -14 0 -7 -9 -16 -20 -19 -11 -3 -20 -1
-20 5 0 5 -7 2 -16 -6 -11 -11 -20 -13 -33 -7 -12 7 -25 5 -43 -7 -32 -21 -79
-70 -93 -97 -6 -11 -21 -21 -33 -23 -42 -6 -18 -31 31 -33 15 0 17 -2 7 -6 -8
-3 -31 -12 -50 -21 -19 -8 -39 -14 -43 -13 -5 1 -25 -7 -45 -17 -65 -34 -86
-41 -122 -44 -35 -3 -35 -3 -35 -53 0 -45 3 -51 33 -72 34 -22 60 -21 75 4 6
10 13 10 28 3 21 -12 58 -5 60 11 1 5 2 15 3 21 0 7 -17 30 -39 50 -21 20 -36
41 -32 45 8 7 68 -20 97 -43 11 -9 28 -10 70 -2 68 13 87 26 64 42 -14 10 -13
14 5 38 12 14 21 38 21 52 0 16 7 29 18 33 27 10 31 24 25 72 -8 57 14 53 36
-8 l16 -43 -34 -29 c-35 -29 -36 -53 -2 -32 22 14 31 8 31 -23 0 -18 7 -23 38
-26 20 -3 39 -1 40 4 2 4 11 16 20 25 16 15 15 16 -5 11 -30 -8 -39 8 -19 31
17 19 21 32 9 30 -22 -4 -25 3 -7 16 21 16 35 19 33 8 -4 -22 3 -24 21 -8 15
13 24 15 31 8 14 -14 3 -48 -23 -73 -30 -27 -15 -42 26 -25 18 8 36 11 40 8
13 -14 5 -43 -16 -54 -13 -7 -18 -14 -11 -16 9 -3 9 -10 1 -29 -16 -34 -3 -41
30 -18 15 11 48 29 74 40 46 18 53 27 48 68 -4 38 25 8 35 -37 9 -39 12 -44
28 -36 9 6 22 7 29 3 13 -8 -40 -40 -61 -35 -15 3 -61 -37 -61 -53 0 -6 -14
-23 -32 -38 -18 -14 -29 -30 -24 -35 4 -4 22 8 39 28 18 20 43 40 57 44 13 4
30 14 38 21 7 8 21 14 30 14 10 0 28 7 40 16 15 10 32 13 51 9 17 -3 32 -2 36
4 3 6 13 11 22 11 9 0 31 16 49 36 28 29 34 32 34 16 0 -11 -9 -26 -20 -33
-28 -20 -29 -41 -2 -44 14 -1 29 6 35 17 7 10 23 18 39 18 14 0 29 6 31 13 4
9 6 8 6 -2 1 -11 5 -11 19 2 17 16 18 15 19 -18 1 -19 -4 -38 -10 -42 -6 -4
-8 0 -4 10 3 9 -1 18 -9 21 -24 9 -34 7 -34 -7 0 -8 -9 -22 -20 -32 -20 -18
-75 -115 -65 -115 3 0 19 10 34 21 24 17 34 20 58 12 l28 -10 -32 -19 c-39
-23 -41 -30 -10 -38 24 -6 52 -50 62 -98 3 -16 12 -28 20 -28 18 0 19 12 3 28
-9 9 -9 15 -1 23 8 8 15 2 25 -19 13 -26 13 -33 0 -57 -13 -27 -15 -27 -25 -9
-15 28 -15 29 -36 10 -10 -9 -23 -16 -28 -14 -6 2 -38 -21 -73 -49 -69 -59
-97 -69 -78 -28 9 21 8 28 -5 38 -17 12 -14 57 5 57 5 0 6 -5 3 -10 -19 -31
98 -7 156 32 21 14 22 17 9 33 -8 10 -35 27 -59 38 -43 19 -45 19 -58 1 -8
-11 -16 -29 -20 -41 -3 -13 -10 -23 -15 -23 -6 0 -7 8 -3 18 15 36 17 52 7 52
-6 0 -14 -4 -17 -10 -10 -16 -25 -12 -19 5 9 22 -14 18 -28 -5 -15 -23 -33
-27 -25 -6 3 8 0 22 -8 32 -13 18 -14 18 -34 0 -19 -17 -21 -17 -21 -2 0 9 11
21 25 26 14 5 25 15 25 21 0 7 8 18 18 25 16 12 16 13 -4 14 -12 0 -24 -6 -27
-14 -6 -15 -47 -18 -47 -5 0 11 51 49 66 49 7 0 19 8 26 19 7 10 16 19 21 19
29 5 57 15 57 22 0 16 -71 21 -93 7 -12 -8 -39 -17 -59 -21 -21 -4 -44 -16
-51 -26 -8 -11 -17 -17 -20 -13 -4 3 -7 1 -7 -4 0 -6 6 -13 13 -16 9 -3 7 -9
-5 -24 -22 -24 -23 -43 -3 -43 8 0 15 -8 15 -18 0 -27 -9 -32 -32 -19 -16 10
-22 9 -34 -7 -8 -11 -14 -29 -14 -41 0 -12 -7 -30 -15 -41 -13 -17 -14 -13
-15 48 0 37 -5 70 -10 73 -6 4 -22 0 -35 -9 -15 -10 -26 -12 -30 -6 -7 12
-137 11 -155 0 -19 -12 -3 -29 20 -23 23 6 25 0 8 -26 -9 -15 -8 -24 5 -44 25
-38 -8 -53 -45 -20 -20 18 -83 43 -110 43 -9 0 -26 -16 -38 -35 -12 -19 -30
-36 -41 -36 -10 -1 -24 -2 -31 -3 -7 0 -12 -19 -13 -44 -1 -40 1 -43 22 -39
30 6 49 -16 28 -33 -22 -18 -82 -6 -104 21 -11 14 -22 19 -31 14 -10 -6 -9
-11 5 -21 15 -11 17 -22 11 -64 -4 -31 -3 -50 3 -50 6 0 8 6 5 14 -6 17 13 31
42 31 23 1 23 -6 -3 -55 -7 -14 -13 -32 -13 -41 0 -31 -28 -30 -35 2 -8 33
-13 36 -30 12 -7 -9 -26 -16 -44 -16 -17 0 -31 -4 -31 -9 0 -4 5 -8 11 -8 23
0 1 -25 -26 -30 -16 -3 -27 -9 -24 -15 2 -5 8 -9 14 -7 5 2 25 1 43 -3 32 -6
34 -8 28 -38 -9 -46 -22 -53 -37 -18 -7 17 -23 32 -34 33 -30 5 -65 -21 -65
-48 0 -14 -12 -34 -26 -47 -14 -12 -38 -42 -52 -67 -26 -43 -27 -44 -30 -18
-4 31 30 103 53 111 27 11 17 35 -14 33 -35 -2 -68 -39 -78 -88 -3 -18 -12
-37 -20 -41 -7 -4 -13 -15 -13 -23 0 -18 -56 -74 -73 -74 -7 0 -18 5 -25 12
-8 8 -14 5 -23 -15 -7 -15 -20 -29 -31 -32 -10 -4 -18 -12 -18 -18 0 -7 -5 -5
-10 4 -6 10 -18 15 -33 12 -16 -3 -26 1 -30 11 -5 12 0 16 16 16 13 0 28 -5
34 -11 8 -8 15 -5 24 12 7 13 24 35 38 49 14 14 31 34 36 44 7 12 24 20 49 21
21 1 42 9 47 16 14 23 10 32 -8 18 -12 -11 -17 -11 -20 -2 -8 22 -3 28 20 28
16 0 23 7 25 25 2 14 10 32 17 40 19 21 7 36 -39 46 -42 10 -63 32 -53 57 3 8
32 28 64 45 57 29 140 98 130 108 -3 3 -28 -6 -56 -20 l-51 -26 -2 47 c-1 27
-2 62 -2 78 -1 19 -6 30 -16 30 -12 0 -22 -15 -50 -75 -4 -8 -17 -16 -29 -18
-18 -3 -21 0 -17 20 3 13 8 40 11 61 5 33 9 37 34 37 17 0 31 7 35 16 5 13 15
15 46 11 49 -6 73 14 35 31 -34 16 -32 32 4 32 17 0 31 6 35 16 3 9 13 14 21
10 8 -3 19 3 24 12 10 16 10 16 11 0 0 -23 35 -22 74 1 40 23 43 39 9 52 -60
23 -73 21 -123 -21 -54 -46 -66 -49 -75 -19 -6 19 -10 17 -48 -24 -23 -25 -49
-56 -58 -69 -10 -13 -20 -20 -24 -16 -13 12 5 58 30 80 14 12 25 28 25 35 0
15 47 36 61 27 5 -3 14 9 20 26 12 34 35 35 32 1 -3 -26 28 -29 48 -5 10 13
10 17 -2 25 -10 6 -7 9 14 9 19 0 27 5 27 18 0 13 -2 14 -9 3 -7 -11 -10 -9
-16 9 -5 17 -12 20 -31 16 -31 -8 -43 17 -20 43 21 23 20 31 -1 32 -11 0 -13
3 -5 6 22 9 13 23 -15 23 -16 0 -35 5 -43 10 -18 12 -10 13 56 10 37 -1 60 4
88 21 36 21 40 21 51 6 15 -20 25 -21 57 -4 46 24 74 52 86 86 14 40 6 54 -32
54 -19 0 -26 5 -26 18 0 11 -6 19 -12 19 -7 0 -2 7 10 16 13 9 32 14 42 11 11
-3 27 1 37 9 21 16 14 18 -62 15 l-50 -2 30 20 c17 12 35 21 41 21 6 0 17 7
24 15 10 12 7 15 -14 21 -14 3 -26 12 -26 20 0 19 -145 20 -154 2 -5 -10 -7
-10 -12 0 -7 14 -244 18 -244 3 0 -5 -9 -7 -20 -4 -14 4 -25 -4 -41 -31 -11
-20 -25 -36 -29 -36 -8 0 2 49 15 70 4 6 -16 10 -55 10 -51 0 -61 -3 -57 -15
4 -8 2 -17 -3 -20 -6 -4 -10 -33 -10 -66 0 -56 -11 -77 -24 -43 -8 20 -61 15
-61 -6 -1 -48 -39 -53 -43 -5 -2 32 1 36 29 42 40 8 46 26 20 59 -12 15 -21
33 -21 40 0 14 -60 20 -73 7z m3538 -13 c3 -5 12 -7 20 -3 21 8 19 -13 -2 -23
-24 -10 -73 -15 -73 -7 0 10 32 43 41 43 4 0 10 -4 14 -10z m103 -12 c1 -13 3
-32 5 -43 1 -13 -3 -19 -13 -16 -8 2 -20 4 -27 4 -6 0 -9 7 -6 16 9 28 26 61
33 61 3 0 7 -10 8 -22z m-1013 2 c-3 -5 -10 -10 -16 -10 -5 0 -9 5 -9 10 0 6
7 10 16 10 8 0 12 -4 9 -10z m-1375 -35 c0 -34 -13 -47 -23 -22 -5 13 9 57 18
57 3 0 5 -16 5 -35z m2972 5 c3 -16 1 -30 -4 -30 -4 0 -8 5 -8 10 0 6 -11 10
-25 10 -27 0 -28 1 -19 24 3 9 16 16 29 16 18 0 24 -7 27 -30z m-3806 -25 c43
-45 80 -57 90 -31 4 11 19 13 62 9 45 -4 55 -3 45 7 -12 14 -6 43 8 35 4 -3 6
-12 3 -19 -3 -8 -1 -17 5 -21 21 -12 11 -27 -14 -21 -14 4 -25 2 -25 -3 0 -5
-12 -9 -28 -9 -15 1 -41 -6 -58 -15 -17 -9 -40 -13 -52 -11 -19 6 -20 2 -21
-62 0 -50 4 -73 16 -86 21 -24 8 -37 -15 -15 -12 13 -17 36 -18 85 -2 128 -2
134 -21 130 -10 -2 -18 -10 -18 -18 0 -8 -4 -21 -9 -28 -5 -9 0 -25 14 -44 25
-34 15 -58 -17 -40 -13 8 -22 7 -35 -5 -15 -13 -18 -12 -28 7 -8 15 -8 20 -1
16 6 -4 15 4 21 18 5 14 14 26 20 26 7 0 8 6 0 19 -13 26 -13 31 4 31 23 0 29
20 12 39 -24 26 -20 43 12 50 2 1 23 -19 48 -44z m1484 31 c0 -8 -4 -18 -10
-21 -5 -3 -10 3 -10 14 0 12 5 21 10 21 6 0 10 -6 10 -14z m1148 -17 c-24 -14
-23 -39 2 -39 22 0 26 -10 9 -27 -7 -7 -8 -24 -4 -43 7 -30 8 -31 46 -25 37 6
39 5 39 -19 0 -31 -19 -45 -32 -22 -5 9 -13 16 -18 16 -10 0 -7 -68 5 -94 8
-19 -3 -47 -21 -53 -15 -5 -35 58 -23 73 7 9 6 23 -6 47 -9 19 -15 41 -14 49
2 7 -5 31 -15 53 -10 24 -14 50 -11 67 7 32 35 52 50 37 7 -7 4 -14 -7 -20z
m872 1 c0 -5 -9 -14 -19 -19 -14 -8 -20 -7 -24 4 -6 13 6 23 31 24 6 1 12 -3
12 -9z m-1447 -17 c-1 -6 15 -9 40 -6 46 5 109 -7 114 -23 4 -11 -65 -12 -83
-1 -24 14 -84 -1 -105 -27 -21 -27 -49 -35 -49 -15 0 17 63 88 75 84 6 -1 9
-7 8 -12z m1363 -8 c-3 -9 -11 -13 -16 -10 -8 5 -7 11 1 21 14 18 24 11 15
-11z m121 -10 c-4 -8 -2 -17 3 -20 14 -9 12 -25 -3 -25 -7 0 -28 -11 -47 -25
-43 -32 -50 -31 -50 4 0 20 6 30 20 34 11 3 20 12 20 20 0 14 12 19 54 26 4 0
6 -6 3 -14z m-457 -10 c0 -8 -4 -15 -10 -15 -5 0 -10 7 -10 15 0 8 5 15 10 15
6 0 10 -7 10 -15z m120 -12 c0 -20 -3 -24 -11 -16 -7 7 -9 19 -6 27 10 24 17
19 17 -11z m-1700 -22 c0 -11 -4 -23 -10 -26 -6 -4 -10 5 -10 19 0 14 5 26 10
26 6 0 10 -9 10 -19z m-1233 -13 c-3 -8 -6 -5 -6 6 -1 11 2 17 5 13 3 -3 4
-12 1 -19z m457 13 c3 -5 -5 -11 -19 -13 -26 -5 -35 6 -12 15 19 8 25 8 31 -2z
m2627 -4 c0 -4 -3 -23 -7 -42 -5 -28 -11 -35 -30 -35 -20 0 -23 3 -15 18 5 9
14 30 20 45 10 25 33 35 32 14z m-851 -7 c0 -5 9 -10 20 -10 15 0 20 -7 20
-25 0 -18 5 -25 20 -25 17 0 26 -12 18 -23 -2 -2 3 -11 11 -20 22 -27 7 -48
-29 -41 -21 5 -30 3 -31 -7 -5 -50 -3 -64 8 -62 8 2 9 -6 3 -27 -9 -33 -2
-109 13 -127 6 -9 5 -18 -3 -28 -7 -9 -9 -26 -5 -45 4 -19 3 -30 -4 -30 -6 0
-11 4 -11 8 0 5 -10 19 -22 31 -17 19 -19 27 -10 42 19 30 15 59 -8 59 -26 0
-25 15 1 41 11 11 18 24 14 27 -4 4 -12 -1 -19 -11 -7 -9 -18 -17 -23 -17 -12
0 -48 -40 -56 -62 -9 -27 -27 -22 -27 7 0 19 10 31 35 46 19 12 35 22 35 24 0
2 -20 3 -45 3 -33 0 -46 -4 -50 -17 -3 -10 -16 -23 -30 -29 -19 -9 -28 -7 -50
10 -25 19 -26 22 -9 31 10 6 34 9 54 9 31 -2 37 2 47 28 7 20 18 30 32 30 17
0 20 6 18 40 -1 46 18 74 34 50 14 -21 4 -77 -17 -98 -17 -16 -17 -17 5 -20
37 -6 48 4 55 50 4 23 14 53 22 66 18 27 11 42 -19 42 -20 0 -77 45 -77 62 0
10 38 26 63 27 9 1 17 -3 17 -9z m520 -2 c0 -13 -39 -58 -51 -58 -10 0 33 69
44 70 4 0 7 -5 7 -12z m-1721 -11 c12 -15 5 -27 -16 -27 -7 0 -13 9 -13 20 0
23 13 26 29 7z m1981 -17 c0 -5 -5 -10 -11 -10 -5 0 -7 5 -4 10 3 6 8 10 11
10 2 0 4 -4 4 -10z m-2572 -36 c-6 -32 -25 -26 -20 6 3 21 8 28 14 22 6 -6 8
-18 6 -28z m1667 26 c3 -5 -1 -10 -9 -10 -9 0 -16 5 -16 10 0 6 4 10 9 10 6 0
13 -4 16 -10z m825 -9 c0 -29 -48 -81 -73 -80 -17 1 -18 2 -4 6 9 2 17 8 17
13 0 5 11 21 25 36 14 15 25 31 25 35 0 5 2 9 5 9 3 0 5 -9 5 -19z m-1600 -6
c0 -7 7 -18 16 -23 19 -11 8 -21 -30 -28 -18 -3 -25 1 -28 19 -2 12 -3 28 0
35 5 17 42 15 42 -3z m120 6 c0 -6 -4 -13 -10 -16 -5 -3 -10 1 -10 9 0 9 5 16
10 16 6 0 10 -4 10 -9z m370 -1 c0 -5 -4 -10 -10 -10 -5 0 -10 5 -10 10 0 6 5
10 10 10 6 0 10 -4 10 -10z m990 0 c0 -5 -9 -10 -21 -10 -15 0 -20 -5 -17 -22
2 -15 -2 -23 -11 -23 -23 0 -23 19 -1 43 21 23 50 30 50 12z m675 0 c-3 -5
-11 -10 -16 -10 -6 0 -7 5 -4 10 3 6 11 10 16 10 6 0 7 -4 4 -10z m-1507 -29
c3 -8 -1 -12 -9 -9 -7 2 -15 10 -17 17 -3 8 1 12 9 9 7 -2 15 -10 17 -17z
m-1970 -8 c-4 -22 -22 -20 -26 1 -2 10 3 16 13 16 10 0 15 -7 13 -17z m952 7
c0 -5 -7 -10 -15 -10 -8 0 -15 5 -15 10 0 6 7 10 15 10 8 0 15 -4 15 -10z
m2004 -32 l-5 -33 19 22 20 22 6 -22 c12 -46 8 -60 -18 -53 -14 3 -36 1 -51
-6 -39 -18 -56 4 -27 35 12 13 22 33 22 45 0 15 6 22 20 22 16 0 19 -5 14 -32z
m-739 2 c-3 -5 -10 -10 -16 -10 -5 0 -9 5 -9 10 0 6 7 10 16 10 8 0 12 -4 9
-10z m-2265 -30 c0 -5 -7 -10 -15 -10 -8 0 -15 5 -15 10 0 6 7 10 15 10 8 0
15 -4 15 -10z m1149 -43 c-23 -18 -24 -19 -28 -1 -2 10 7 26 20 37 23 18 24
19 28 1 2 -10 -7 -26 -20 -37z m1701 49 c0 -3 -4 -8 -10 -11 -5 -3 -10 -1 -10
4 0 6 5 11 10 11 6 0 10 -2 10 -4z m-3139 -24 c35 -29 20 -47 -44 -50 -60 -3
-80 9 -43 26 26 12 44 11 64 -2 10 -6 13 -3 10 10 -2 13 -10 18 -27 16 -15 -2
-21 0 -17 7 10 16 31 13 57 -7z m1666 -4 c-3 -8 -6 -5 -6 6 -1 11 2 17 5 13 3
-3 4 -12 1 -19z m183 12 c0 -5 -4 -10 -10 -10 -5 0 -10 5 -10 10 0 6 5 10 10
10 6 0 10 -4 10 -10z m426 -35 c-31 -29 -49 -32 -44 -8 3 15 29 28 62 32 5 1
-3 -10 -18 -24z m-700 -12 c-10 -10 -19 5 -10 18 6 11 8 11 12 0 2 -7 1 -15
-2 -18z m-576 8 c0 -9 -23 -21 -41 -21 -4 0 -6 7 -3 15 7 16 44 21 44 6z m799
-22 c-25 -16 -32 -9 -13 12 12 13 20 16 22 9 3 -7 -2 -16 -9 -21z m579 9 c2
-11 -5 -15 -28 -14 -34 1 -38 10 -12 25 21 13 36 9 40 -11z m-498 -8 c0 -5 -7
-10 -16 -10 -8 0 -12 5 -9 10 3 6 10 10 16 10 5 0 9 -4 9 -10z m950 -15 c0
-15 -6 -25 -14 -25 -19 0 -30 32 -14 42 21 13 28 9 28 -17z m-904 -22 c-11
-11 -19 6 -11 24 8 17 8 17 12 0 3 -10 2 -21 -1 -24z m121 2 c-7 -14 -15 -25
-19 -25 -11 0 -10 7 4 30 18 28 28 25 15 -5z m613 9 c0 -8 -4 -12 -10 -9 -5 3
-10 10 -10 16 0 5 5 9 10 9 6 0 10 -7 10 -16z m270 -3 c0 -23 -16 -36 -25 -21
-9 14 1 40 15 40 5 0 10 -9 10 -19z m-3011 -41 c-12 -22 -23 -40 -26 -40 -8 0
7 53 19 67 22 28 27 11 7 -27z m411 26 c0 -21 -35 -29 -61 -15 -17 9 -19 13
-8 20 23 14 69 11 69 -5z m1510 -6 c0 -5 -4 -10 -10 -10 -5 0 -10 5 -10 10 0
6 5 10 10 10 6 0 10 -4 10 -10z m437 -32 c-3 -7 -5 -2 -5 12 0 14 2 19 5 13 2
-7 2 -19 0 -25z m-677 17 c0 -3 -12 -10 -26 -16 -29 -10 -68 -3 -59 12 6 9 85
13 85 4z m-1470 -21 c0 -8 -4 -12 -10 -9 -5 3 -10 10 -10 16 0 5 5 9 10 9 6 0
10 -7 10 -16z m1534 1 c-4 -8 -10 -15 -14 -15 -13 0 -18 -53 -7 -77 15 -33 35
-28 55 15 17 36 30 52 45 52 14 0 7 -19 -18 -48 -14 -17 -25 -37 -25 -46 0 -9
-11 -21 -24 -27 -14 -7 -23 -17 -20 -23 2 -6 -5 -24 -16 -41 -11 -16 -20 -26
-20 -21 0 5 -9 1 -20 -9 -23 -20 -27 -19 -30 10 -6 54 1 84 19 90 14 4 21 19
26 58 7 51 29 97 46 97 5 0 6 -7 3 -15z m126 6 c0 -5 -7 -14 -15 -21 -16 -14
-18 -10 -9 14 6 17 24 22 24 7z m250 -11 c0 -5 -5 -10 -11 -10 -5 0 -7 5 -4
10 3 6 8 10 11 10 2 0 4 -4 4 -10z m1027 -6 c5 -14 -60 -28 -88 -19 -16 5 -18
10 -9 20 14 16 92 15 97 -1z m493 -19 c11 -13 10 -14 -4 -9 -9 3 -16 10 -16
15 0 13 6 11 20 -6z m-3490 -4 c0 -12 -20 -25 -27 -18 -7 7 6 27 18 27 5 0 9
-4 9 -9z m2345 -1 c-3 -5 -10 -10 -16 -10 -5 0 -9 5 -9 10 0 6 7 10 16 10 8 0
12 -4 9 -10z m-143 -12 l96 -2 -3 -31 c-1 -16 -3 -33 -4 -36 0 -4 -13 -9 -28
-11 -16 -3 -36 -9 -45 -13 -28 -12 -22 20 8 44 l27 21 -49 1 c-64 1 -103 -1
-136 -7 -22 -4 -28 -2 -28 13 0 14 -2 15 -9 5 -7 -11 -9 -11 -14 1 -8 22 1 27
47 22 23 -2 84 -5 138 -7z m558 -10 c0 -21 -17 -41 -29 -34 -7 5 -7 13 2 26
13 23 27 26 27 8z m90 3 c0 -6 -4 -13 -10 -16 -5 -3 -10 1 -10 9 0 9 5 16 10
16 6 0 10 -4 10 -9z m-1130 -35 c0 -8 -4 -18 -10 -21 -5 -3 -10 3 -10 14 0 12
5 21 10 21 6 0 10 -6 10 -14z m-1755 -14 c26 -5 32 -11 19 -20 -5 -4 -21 -23
-34 -42 -13 -19 -37 -48 -52 -64 -15 -17 -28 -35 -28 -42 0 -10 -50 -27 -57
-20 -7 7 24 57 37 61 8 3 21 18 28 34 7 17 22 33 32 36 23 7 34 34 20 50 -5 6
-7 15 -3 19 4 3 9 3 12 -1 3 -5 15 -10 26 -11z m1494 -28 c-29 -31 -41 -30
-37 3 2 19 10 29 28 33 33 8 37 -6 9 -36z m1595 37 c7 -10 -33 -23 -46 -15 -5
3 -6 10 -3 15 8 12 42 12 49 0z m-3282 -23 c-6 -6 -15 -8 -19 -4 -4 4 -1 11 7
16 19 12 27 3 12 -12z m2092 -23 c-7 -17 -20 -20 -28 -6 -7 10 3 21 20 21 8 0
11 -6 8 -15z m142 0 c23 -11 25 -15 11 -20 -9 -4 -21 -4 -26 0 -8 4 -8 -2 -1
-20 13 -34 13 -58 0 -50 -6 4 -18 1 -27 -7 -15 -11 -16 -11 -8 7 5 11 10 39
13 63 2 23 5 42 7 42 1 0 15 -7 31 -15z m414 5 c0 -5 -6 -10 -13 -10 -8 0 -23
-10 -35 -23 -26 -28 -56 -97 -42 -97 5 0 10 -4 10 -10 0 -5 -7 -10 -16 -10
-13 0 -15 9 -11 56 3 31 9 60 14 65 6 6 64 31 91 38 1 1 2 -3 2 -9z m-650 -14
c0 -16 -18 -31 -27 -22 -8 8 5 36 17 36 5 0 10 -6 10 -14z m327 8 c-3 -3 -12
-4 -19 -1 -8 3 -5 6 6 6 11 1 17 -2 13 -5z m-445 -32 c-13 -13 -19 -28 -15
-41 5 -20 -6 -28 -20 -15 -8 8 14 56 33 71 23 18 24 7 2 -15z m639 1 c-8 -15
-10 -15 -11 -2 0 17 10 32 18 25 2 -3 -1 -13 -7 -23z m-1441 -24 c27 -50 -1
-65 -47 -24 -27 24 -27 26 -10 39 22 17 43 11 57 -15z m1355 5 c38 -25 30 -32
-34 -33 -58 0 -59 1 -42 18 15 15 32 25 49 30 1 1 14 -6 27 -15z m-305 -4 c0
-5 -4 -10 -10 -10 -5 0 -10 5 -10 10 0 6 5 10 10 10 6 0 10 -4 10 -10z m557
-22 c-4 -14 0 -26 11 -34 15 -12 15 -13 1 -14 -9 0 -24 9 -34 20 -15 16 -15
22 -5 35 18 22 33 18 27 -7z m-157 -32 c0 -3 -4 -8 -10 -11 -5 -3 -10 -1 -10
4 0 6 5 11 10 11 6 0 10 -2 10 -4z m-2571 -28 c-24 -22 -79 -34 -79 -18 0 16
44 40 74 40 l29 0 -24 -22z m1066 12 c-3 -5 -12 -7 -20 -3 -21 7 -19 13 6 13
11 0 18 -4 14 -10z m295 -11 c0 -5 -4 -9 -10 -9 -5 0 -10 7 -10 16 0 8 5 12
10 9 6 -3 10 -10 10 -16z m480 6 c0 -8 -4 -15 -10 -15 -5 0 -10 7 -10 15 0 8
5 15 10 15 6 0 10 -7 10 -15z m420 -9 c0 -8 -9 -16 -20 -19 -11 -3 -24 -17
-30 -31 -12 -32 -33 -34 -28 -3 2 12 13 26 26 32 12 5 25 18 28 28 6 19 24 14
24 -7z m-1105 -13 c4 -16 8 -36 10 -45 6 -33 -18 -32 -47 2 -26 32 -27 35 -11
52 23 26 42 22 48 -9z m275 -3 c6 -11 7 -20 2 -20 -10 0 -32 21 -32 32 0 16
19 8 30 -12z m661 0 c50 -98 50 -134 -1 -90 -31 27 -52 69 -44 92 7 22 33 20
45 -2z m-1901 -5 c0 -8 -7 -15 -16 -15 -14 0 -14 3 -4 15 7 8 14 15 16 15 2 0
4 -7 4 -15z m-34 -51 c18 -44 18 -78 -2 -95 -10 -8 -13 -21 -9 -37 6 -23 4
-24 -24 -19 -17 4 -33 2 -37 -4 -3 -6 -23 -18 -43 -26 -20 -8 -49 -24 -64 -35
-38 -27 -47 -15 -11 15 62 53 94 88 89 97 -9 15 -38 12 -61 -5 -10 -8 -28 -15
-38 -15 -16 0 -14 5 12 28 29 26 35 27 94 21 35 -3 66 -4 71 -2 10 6 8 33 -7
75 -22 61 5 62 30 2z m662 6 c8 -21 8 -32 -1 -37 -6 -3 -13 -1 -15 5 -2 7 -10
12 -18 12 -17 0 -18 22 -2 38 18 18 25 15 36 -18z m1502 8 c16 -20 22 -21 39
-10 11 6 23 12 26 12 3 0 5 -6 5 -12 0 -7 11 -14 25 -14 14 -1 42 -5 61 -9 29
-5 33 -9 24 -20 -6 -7 -25 -13 -41 -13 -31 1 -52 -12 -31 -19 11 -4 18 -43 8
-43 -15 0 -35 14 -30 21 3 5 0 9 -5 9 -6 0 -11 11 -11 25 0 24 -34 49 -52 39
-8 -5 -58 36 -58 48 0 16 22 8 40 -14z m-303 -5 c2 -6 -4 -13 -13 -17 -21 -8
-26 -3 -18 18 7 18 25 17 31 -1z m830 -5 c-3 -8 -6 -5 -6 6 -1 11 2 17 5 13 3
-3 4 -12 1 -19z m-1607 2 c0 -5 -7 -10 -15 -10 -8 0 -15 5 -15 10 0 6 7 10 15
10 8 0 15 -4 15 -10z m1460 -10 c0 -5 -5 -10 -11 -10 -5 0 -7 5 -4 10 3 6 8
10 11 10 2 0 4 -4 4 -10z m-510 -25 c0 -8 -4 -15 -10 -15 -5 0 -10 7 -10 15 0
8 5 15 10 15 6 0 10 -7 10 -15z m-737 -12 c19 -6 23 -28 7 -38 -6 -4 -8 -10
-5 -15 3 -4 -2 -10 -10 -14 -16 -6 -21 9 -5 19 17 10 -1 35 -26 35 -24 0 -31
10 -17 24 4 3 14 4 22 0 9 -3 24 -9 34 -11z m532 -2 c-2 -5 -14 -11 -26 -14
-20 -5 -20 -5 -4 13 17 18 41 18 30 1z m-1052 -37 c-12 -37 -27 -40 -41 -10
-10 22 -8 27 10 41 29 20 43 5 31 -31z m2007 36 c0 -5 -5 -10 -11 -10 -5 0 -7
5 -4 10 3 6 8 10 11 10 2 0 4 -4 4 -10z m-860 -36 c7 -13 10 -27 6 -31 -9 -9
-46 33 -46 53 0 20 25 7 40 -22z m-185 16 c4 -6 11 -7 17 -4 6 4 9 1 6 -7 -7
-20 -42 -17 -46 4 -4 18 13 24 23 7z m1505 0 c0 -5 -2 -10 -4 -10 -3 0 -8 5
-11 10 -3 6 -1 10 4 10 6 0 11 -4 11 -10z m-2530 -13 c0 -4 -11 -12 -24 -17
-13 -5 -27 -14 -31 -19 -10 -17 -55 -13 -55 4 0 8 6 15 14 15 8 0 16 6 19 14
6 15 77 18 77 3z m430 -2 c0 -8 -4 -15 -10 -15 -5 0 -10 7 -10 15 0 8 5 15 10
15 6 0 10 -7 10 -15z m287 -12 c-3 -3 -11 -2 -17 2 -9 6 -9 10 1 16 14 8 27
-7 16 -18z m584 -6 c-10 -9 -11 -8 -5 6 3 10 9 15 12 12 3 -3 0 -11 -7 -18z
m-416 3 c3 -6 -4 -10 -17 -10 -18 0 -20 2 -8 10 19 12 18 12 25 0z m1137 -2
c-7 -7 -12 -23 -13 -37 0 -15 -7 -42 -15 -61 l-14 -35 6 35 c11 68 25 110 36
110 9 0 9 -3 0 -12z m1779 -41 c-13 -13 -26 -3 -16 12 3 6 11 8 17 5 6 -4 6
-10 -1 -17z m-4766 3 c-3 -5 -11 -10 -16 -10 -6 0 -7 5 -4 10 3 6 11 10 16 10
6 0 7 -4 4 -10z m2055 -15 c28 -29 21 -31 -23 -8 -36 19 -74 18 -98 -3 -18
-16 -39 -19 -39 -5 0 14 14 21 62 30 67 14 73 13 98 -14z m628 10 c29 -13 41
-13 59 -4 25 14 76 4 70 -14 -3 -8 -25 -11 -68 -9 -85 3 -109 9 -109 27 0 19
2 19 48 0z m-1358 -5 c0 -5 -4 -10 -10 -10 -5 0 -10 5 -10 10 0 6 5 10 10 10
6 0 10 -4 10 -10z m3248 -10 c23 -22 28 -45 13 -55 -12 -7 -33 29 -24 39 3 3
-1 6 -10 6 -9 0 -17 7 -17 15 0 21 12 19 38 -5z m-4290 -30 c-19 -26 -48 -41
-48 -25 0 18 35 55 51 55 19 0 18 -1 -3 -30z m782 15 c0 -8 -4 -15 -10 -15 -5
0 -10 7 -10 15 0 8 5 15 10 15 6 0 10 -7 10 -15z m-55 -5 c-3 -5 -10 -10 -16
-10 -5 0 -9 5 -9 10 0 6 7 10 16 10 8 0 12 -4 9 -10z m1370 -48 c-7 -8 -23 42
-17 53 3 5 9 -4 14 -20 4 -16 5 -31 3 -33z m-800 28 c-8 -13 -65 -18 -65 -5 0
6 16 11 35 12 19 1 33 -3 30 -7z m-515 -25 c0 -14 -4 -25 -10 -25 -8 0 -8 23
-1 48 4 12 11 -3 11 -23z m200 2 c0 -12 -9 -30 -20 -40 -11 -9 -20 -16 -21
-14 -8 24 -5 45 8 59 22 24 33 23 33 -5z m-1055 -7 c-10 -11 -23 -20 -28 -20
-6 0 -2 9 8 20 10 11 23 20 28 20 6 0 2 -9 -8 -20z m778 -4 c4 -9 14 -12 25
-9 24 6 40 -16 21 -28 -11 -7 -11 -9 -1 -9 9 0 12 -13 10 -42 -2 -33 -8 -44
-22 -46 -10 -2 -23 3 -28 12 -5 9 -13 14 -19 11 -5 -4 -9 -1 -9 5 0 6 6 13 14
16 8 3 17 12 20 21 4 11 2 13 -9 9 -11 -4 -15 1 -15 18 0 14 -3 31 -6 40 -3 9
-2 16 4 16 5 0 12 -6 15 -14z m407 -6 c-30 -23 -52 -26 -44 -6 5 13 23 20 59
24 6 1 -1 -7 -15 -18z m-470 -11 c0 -11 -4 -18 -9 -14 -14 8 -26 -16 -26 -55
0 -32 -2 -34 -35 -36 -19 -1 -43 2 -52 7 -24 13 -47 1 -41 -21 6 -23 -30 -60
-59 -60 -21 1 -20 3 12 30 19 16 30 30 23 30 -6 0 -15 -5 -19 -11 -10 -16 -26
5 -18 24 3 9 12 17 19 17 7 0 15 9 18 21 5 17 9 19 26 9 24 -12 55 0 65 25 3
8 12 15 19 15 8 0 22 9 32 20 23 26 45 26 45 -1z m-691 -36 c-8 -21 -7 -29 6
-35 19 -11 19 -34 0 -42 -8 -3 -15 -12 -15 -19 0 -7 -10 -19 -23 -26 -12 -6
-30 -25 -39 -42 -15 -25 -56 -53 -66 -44 -2 1 0 14 3 28 4 16 20 32 41 42 35
16 48 55 19 55 -8 0 -15 5 -15 10 0 16 27 12 34 -5 5 -13 9 -12 27 6 18 18 20
25 10 40 -15 25 -14 56 2 62 21 8 27 -3 16 -30z m2551 28 c0 -6 -4 -13 -10
-16 -5 -3 -10 1 -10 9 0 9 5 16 10 16 6 0 10 -4 10 -9z m-1192 -8 c-10 -2 -28
-2 -40 0 -13 2 -5 4 17 4 22 1 32 -1 23 -4z m-468 -33 c0 -5 -7 -10 -15 -10
-8 0 -15 5 -15 10 0 6 7 10 15 10 8 0 15 -4 15 -10z m2215 0 c-3 -5 -10 -10
-16 -10 -5 0 -9 5 -9 10 0 6 7 10 16 10 8 0 12 -4 9 -10z m-2408 -32 c-3 -8
-6 -5 -6 6 -1 11 2 17 5 13 3 -3 4 -12 1 -19z m283 18 c0 -3 -4 -8 -10 -11 -5
-3 -10 -1 -10 4 0 6 5 11 10 11 6 0 10 -2 10 -4z m2041 -34 c-26 -18 -90 -47
-79 -36 21 20 75 53 88 53 10 0 6 -6 -9 -17z m-2151 -28 c0 -8 -4 -12 -10 -9
-5 3 -10 10 -10 16 0 5 5 9 10 9 6 0 10 -7 10 -16z m-840 -36 c0 -9 -4 -20
-10 -23 -5 -3 -9 9 -8 30 1 35 18 29 18 -7z m4042 10 c-7 -7 -12 -8 -12 -2 0
14 12 26 19 19 2 -3 -1 -11 -7 -17z m-4002 2 c0 -5 -4 -10 -10 -10 -5 0 -10 5
-10 10 0 6 5 10 10 10 6 0 10 -4 10 -10z m720 -10 c0 -25 -29 -38 -41 -19 -6
9 -3 18 8 27 24 17 33 15 33 -8z m-380 -19 c-1 -20 -32 -41 -59 -41 -18 0 -42
-5 -53 -11 -11 -6 -19 -7 -16 -2 28 60 29 60 79 60 27 -1 49 -3 49 -6z m650
-7 c0 -8 -5 -12 -10 -9 -6 4 -8 11 -5 16 9 14 15 11 15 -7z m-1440 -28 c0 -12
-28 -55 -33 -50 -7 8 14 54 25 54 4 0 8 -2 8 -4z m936 -12 c-3 -9 -6 -22 -6
-29 0 -13 -29 -29 -37 -21 -7 7 30 66 40 66 5 0 6 -7 3 -16z m244 1 c-7 -8
-18 -15 -24 -15 -6 0 -2 7 8 15 25 19 32 19 16 0z m2275 -5 c-3 -5 -15 -10
-26 -10 -11 0 -17 5 -14 10 3 6 15 10 26 10 11 0 17 -4 14 -10z m-2685 -10 c0
-5 7 -10 16 -10 9 0 14 -6 11 -12 -2 -7 -12 -12 -22 -10 -9 2 -23 -5 -31 -16
-7 -11 -28 -23 -46 -27 -22 -5 -27 -9 -15 -12 25 -6 21 -19 -14 -44 -38 -27
-26 -42 22 -27 24 7 36 16 34 27 -1 9 0 10 2 4 3 -7 16 -13 30 -13 24 0 252
71 300 93 13 6 25 8 28 6 7 -7 -92 -59 -112 -59 -10 0 -41 -11 -69 -24 -28
-13 -66 -27 -85 -31 -19 -4 -45 -15 -59 -25 -19 -13 -31 -15 -49 -8 -16 5 -28
5 -35 -2 -7 -7 0 -10 22 -10 18 0 35 -7 40 -16 7 -13 15 -14 44 -6 34 9 36 9
42 -18 3 -17 17 -35 36 -46 24 -15 30 -25 30 -51 0 -23 -5 -33 -15 -33 -13 0
-14 4 -5 20 9 16 8 20 -5 20 -9 0 -27 11 -41 25 -14 14 -29 23 -34 20 -5 -3
-19 -1 -31 6 -17 9 -20 8 -17 -3 3 -7 10 -13 17 -13 15 0 31 -24 31 -47 0 -14
-4 -16 -24 -8 -19 7 -26 5 -30 -7 -4 -8 -2 -21 3 -27 11 -13 -27 -62 -53 -68
-9 -1 -17 -6 -16 -11 0 -4 -7 -22 -17 -40 -10 -17 -18 -41 -18 -52 0 -14 -8
-21 -25 -23 -14 -2 -29 -8 -35 -14 -7 -7 0 -8 23 -3 36 7 45 -12 15 -36 -16
-14 -20 -14 -38 1 -23 18 -76 22 -88 7 -13 -17 -87 -35 -87 -21 0 19 46 54 72
54 15 0 28 5 28 10 0 6 -7 10 -16 10 -11 0 -14 5 -9 18 3 9 9 29 12 45 7 36
-23 38 -37 1 -6 -16 -16 -24 -24 -21 -9 4 -16 -4 -20 -24 -3 -16 -10 -29 -16
-29 -18 0 -11 26 20 66 33 43 37 59 16 51 -8 -3 -17 -1 -19 6 -6 17 -42 -17
-57 -54 -15 -35 -30 -38 -30 -5 0 33 -12 39 -46 21 -31 -16 -54 -19 -54 -7 1
10 30 47 38 47 4 1 18 7 32 14 13 8 43 13 66 12 29 -1 44 4 48 14 4 11 -2 15
-27 15 l-32 0 34 30 c28 25 30 30 15 31 -11 1 -32 4 -49 6 -65 10 -112 6 -148
-11 -53 -26 -69 -9 -31 32 16 17 38 42 48 56 20 28 46 35 46 12 0 -7 -7 -19
-15 -26 -14 -12 -21 -40 -10 -40 3 0 13 4 23 9 9 5 25 12 35 15 13 4 17 16 17
50 0 58 17 69 103 68 26 0 61 -1 78 -3 42 -3 69 29 42 48 -9 7 -25 13 -35 13
-36 0 -6 26 49 43 41 12 59 14 64 5 12 -19 39 0 39 27 0 14 5 25 10 25 6 0 10
-7 10 -15 0 -12 5 -13 28 -3 15 6 34 18 42 25 17 15 30 17 30 3z m2015 -20
c117 -16 233 -53 430 -139 61 -27 117 -51 125 -55 8 -3 22 -10 30 -14 8 -5 26
-15 39 -21 51 -27 97 -54 123 -72 14 -11 30 -19 35 -19 4 0 28 -19 53 -41 25
-23 60 -47 78 -55 17 -8 32 -20 32 -27 0 -7 15 -21 34 -31 18 -10 67 -51 109
-92 42 -41 83 -74 92 -74 13 0 16 -6 11 -25 -5 -20 -2 -27 17 -36 14 -6 40
-36 58 -66 19 -30 44 -66 56 -81 13 -15 23 -33 23 -39 0 -7 5 -13 10 -13 6 0
10 -7 10 -16 0 -9 9 -27 20 -41 11 -14 20 -32 20 -39 0 -8 4 -14 8 -14 13 0
11 -34 -2 -42 -8 -6 -8 -8 1 -8 6 0 9 -9 6 -21 -4 -12 0 -25 8 -29 11 -7 10
-10 -4 -15 -9 -4 -56 7 -104 23 -409 142 -869 170 -1221 76 -139 -38 -179 -43
-324 -45 -118 -1 -170 -12 -119 -26 11 -3 18 -9 15 -14 -3 -5 -2 -9 3 -9 4 0
9 -37 11 -82 1 -46 3 -92 5 -103 2 -18 -6 -21 -81 -27 -46 -5 -96 -15 -113
-23 -36 -19 -44 -15 -65 33 -8 20 -20 45 -25 54 -5 10 -9 30 -9 45 0 16 -9 48
-20 72 -11 24 -20 54 -20 67 0 29 -5 32 -103 55 -168 41 -224 50 -322 54
l-100 4 115 -18 c173 -27 297 -65 348 -105 80 -64 95 -102 93 -241 -2 -153
-19 -250 -85 -482 -8 -29 -38 -98 -67 -154 -113 -219 -231 -287 -590 -338
-210 -30 -368 -41 -599 -44 -260 -3 -280 4 -358 108 -41 56 -62 180 -70 427
-7 182 -10 209 -26 227 -11 12 -25 21 -32 21 -28 0 -42 28 -34 69 4 25 3 42
-3 44 -6 2 -5 12 3 26 6 13 10 34 7 47 -2 13 -1 24 3 24 4 0 11 11 14 25 4 15
29 40 65 64 32 22 87 69 123 105 35 37 69 66 76 66 6 0 20 14 32 30 12 17 30
35 42 41 43 23 27 -3 -41 -67 -39 -37 -71 -71 -71 -76 0 -15 17 -9 43 16 14
13 28 22 30 19 3 -2 4 4 3 13 0 10 7 20 16 22 11 2 18 -3 18 -11 0 -13 5 -13
43 0 23 7 56 20 72 28 17 7 42 16 56 20 32 8 89 58 89 79 0 8 4 16 8 18 5 2
30 35 57 73 251 364 457 565 703 689 150 76 387 162 523 191 141 31 396 37
564 15z m683 8 c-3 -7 -18 -14 -34 -16 l-29 -3 25 15 c32 18 43 19 38 4z
m-3641 -30 c-3 -7 -5 -2 -5 12 0 14 2 19 5 13 2 -7 2 -19 0 -25z m433 -8 c0
-10 -4 -22 -10 -25 -6 -4 -10 7 -10 25 0 18 4 29 10 25 6 -3 10 -15 10 -25z
m630 -14 c0 -3 -4 -8 -10 -11 -5 -3 -10 -1 -10 4 0 6 5 11 10 11 6 0 10 -2 10
-4z m2835 -35 c-7 -13 -75 -35 -82 -27 -7 6 54 35 75 36 7 0 11 -4 7 -9z
m-2345 -10 c0 -6 -4 -13 -10 -16 -5 -3 -10 1 -10 9 0 9 5 16 10 16 6 0 10 -4
10 -9z m-60 -15 c0 6 6 11 13 11 18 0 9 -44 -12 -60 -9 -7 -21 -21 -27 -32 -6
-10 -16 -21 -23 -23 -19 -6 -4 38 21 61 12 12 17 26 13 40 -5 17 -4 19 4 7 6
-8 11 -10 11 -4z m78 -48 c-6 -18 -57 -53 -65 -44 -5 4 6 19 22 32 33 26 49
31 43 12z m-1342 -29 c-3 -17 -6 -40 -6 -50 0 -11 -7 -19 -15 -19 -18 0 -19
25 -4 69 14 41 33 41 25 0z m784 11 c0 -5 -4 -10 -10 -10 -5 0 -10 5 -10 10 0
6 5 10 10 10 6 0 10 -4 10 -10z m170 -60 c0 -5 -4 -10 -9 -10 -6 0 -24 -15
-40 -32 -36 -38 -42 -20 -8 22 21 28 57 40 57 20z m265 -30 c-3 -5 -11 -10
-16 -10 -6 0 -7 5 -4 10 3 6 11 10 16 10 6 0 7 -4 4 -10z m-1665 -15 c-7 -9
-15 -13 -17 -11 -7 7 7 26 19 26 6 0 6 -6 -2 -15z m90 -2 c0 -15 -37 -63 -43
-57 -8 9 21 64 33 64 6 0 10 -3 10 -7z m4616 -12 c-3 -5 -20 -14 -36 -20 -35
-12 -32 5 4 19 28 12 38 12 32 1z m-4432 -20 c10 -15 -41 -30 -83 -24 -51 7
-53 21 -3 26 70 7 81 7 86 -2z m426 -31 c0 -19 -23 -59 -31 -54 -11 6 -12 48
-2 57 10 10 33 8 33 -3z m-400 -30 c-24 -15 -37 -11 -16 5 11 8 22 12 25 9 3
-3 -1 -9 -9 -14z m108 -10 c-5 -17 -14 -33 -19 -36 -14 -8 -11 40 3 54 21 21
27 13 16 -18z m-308 -16 c-18 -21 -24 -10 -9 18 8 14 14 18 17 10 2 -7 -2 -19
-8 -28z m100 16 c0 -11 -4 -20 -9 -20 -14 0 -23 18 -16 30 10 17 25 11 25 -10z
m330 -1 c0 -6 -4 -7 -10 -4 -5 3 -10 11 -10 16 0 6 5 7 10 4 6 -3 10 -11 10
-16z m75 11 c-3 -5 -11 -10 -16 -10 -6 0 -7 5 -4 10 3 6 11 10 16 10 6 0 7 -4
4 -10z m865 6 c0 -3 -4 -8 -10 -11 -5 -3 -10 -1 -10 4 0 6 5 11 10 11 6 0 10
-2 10 -4z m-133 -39 c-8 -13 -29 -30 -46 -37 -17 -7 -29 -15 -27 -19 6 -8 -11
-37 -17 -31 -3 3 -2 19 0 37 4 27 12 35 49 49 24 9 44 21 44 27 0 6 3 7 6 4 4
-4 0 -17 -9 -30z m-1432 -17 c-3 -5 -11 -10 -16 -10 -6 0 -7 5 -4 10 3 6 11
10 16 10 6 0 7 -4 4 -10z m281 -26 c-19 -14 -56 -19 -56 -9 0 9 64 34 70 28 3
-2 -4 -11 -14 -19z m109 -4 c3 -5 -3 -10 -15 -10 -12 0 -18 5 -15 10 3 6 10
10 15 10 5 0 12 -4 15 -10z m1016 -36 c-12 -15 -21 -34 -21 -43 -1 -17 -23
-51 -34 -51 -14 0 -5 38 14 58 11 12 20 28 20 36 0 13 13 23 33 25 5 1 -1 -11
-12 -25z m-1079 -6 c-14 -14 -42 -20 -42 -8 0 9 18 18 40 19 11 1 11 -2 2 -11z
m5188 -10 l23 -22 -27 -7 c-15 -4 -34 -13 -42 -20 -12 -9 -14 -6 -14 18 0 26
15 53 30 53 3 0 17 -10 30 -22z m-320 -8 c0 -6 -8 -13 -17 -16 -10 -3 -26 -10
-35 -15 -32 -17 -33 -9 -3 16 32 26 55 32 55 15z m522 -66 c-5 -26 -10 -30
-23 -17 -14 14 -3 46 14 40 6 -2 10 -13 9 -23z m-4859 -26 c-8 -48 -25 -61
-22 -18 3 41 7 50 19 50 5 0 7 -15 3 -32z m567 22 c0 -5 -5 -10 -11 -10 -5 0
-7 5 -4 10 3 6 8 10 11 10 2 0 4 -4 4 -10z m3925 0 c3 -5 -3 -10 -14 -10 -11
0 -23 5 -26 10 -3 6 3 10 14 10 11 0 23 -4 26 -10z m-4119 -27 c-3 -8 -6 -17
-6 -19 0 -2 -9 -4 -19 -4 -28 0 -36 19 -15 35 22 16 47 8 40 -12z m-1316 -9
c0 -8 -4 -14 -10 -14 -5 0 -10 9 -10 21 0 11 5 17 10 14 6 -3 10 -13 10 -21z
m5510 0 c0 -8 -3 -14 -7 -14 -13 1 -43 27 -37 32 10 10 44 -4 44 -18z m-5430
-4 c0 -5 -4 -10 -10 -10 -5 0 -10 5 -10 10 0 6 5 10 10 10 6 0 10 -4 10 -10z
m600 -25 c0 -8 -4 -15 -9 -15 -5 0 -14 7 -21 15 -10 13 -9 15 9 15 12 0 21 -6
21 -15z m137 8 c-9 -8 32 -53 49 -53 6 0 17 7 24 15 7 9 22 12 39 9 18 -4 44
2 69 14 34 16 43 18 52 7 6 -8 19 -11 28 -9 12 4 11 2 -3 -7 -10 -7 -33 -15
-50 -19 -20 -4 -35 -16 -45 -36 -21 -42 -50 -70 -80 -77 -14 -3 -37 -9 -52
-13 -33 -8 -48 17 -30 47 17 26 15 37 -9 70 -17 24 -18 33 -9 44 7 8 15 15 18
15 3 0 2 -3 -1 -7z m4763 -3 c0 -5 13 -7 30 -3 23 4 30 2 30 -11 0 -9 9 -21
20 -28 11 -7 20 -16 20 -20 0 -13 -33 -9 -50 7 -9 8 -25 16 -37 18 -23 3 -53
25 -53 38 0 5 9 9 20 9 11 0 20 -4 20 -10z m-5222 -95 c-1 -36 -4 -65 -7 -65
-2 0 -10 8 -17 18 -18 23 -17 69 1 76 8 3 15 9 14 13 -2 13 1 23 6 23 2 0 4
-29 3 -65z m302 54 c0 -3 -13 -17 -28 -32 -30 -29 -92 -48 -92 -28 0 7 8 11
18 9 17 -4 52 26 52 46 0 6 11 11 25 11 14 0 25 -3 25 -6z m420 -19 c0 -5 -2
-10 -4 -10 -2 0 -12 -3 -20 -6 -12 -5 -15 -2 -10 10 7 17 34 22 34 6z m-300
-40 c0 -5 -7 -10 -16 -10 -8 0 -12 5 -9 10 3 6 10 10 16 10 5 0 9 -4 9 -10z
m4806 -15 c-2 -37 -16 -43 -16 -7 0 18 4 32 8 32 5 0 8 -11 8 -25z m94 -24 c0
-29 -21 -57 -33 -44 -9 8 -9 58 0 66 16 17 33 5 33 -22z m-5050 -26 c0 -18 9
-29 33 -40 17 -8 25 -13 17 -12 -8 2 -20 -3 -26 -12 -10 -13 -14 -13 -28 -2
-9 7 -16 22 -16 33 0 11 -5 28 -10 39 -9 16 -7 19 10 19 15 0 20 -7 20 -25z
m327 -39 c-18 -15 -24 -25 -17 -32 6 -6 5 -17 -5 -30 -10 -15 -22 -20 -44 -16
-20 3 -31 0 -31 -8 0 -8 9 -11 25 -8 14 3 25 1 25 -3 0 -5 0 -12 0 -16 1 -5
-12 -11 -28 -14 -22 -4 -32 -1 -41 13 -16 25 -31 23 -31 -6 0 -21 -36 -57 -57
-56 -4 0 0 5 9 11 10 5 15 16 11 25 -5 13 -8 13 -24 -2 -27 -24 -73 -11 -65
19 3 12 6 30 6 40 0 12 6 17 18 15 9 -1 23 1 30 5 17 11 15 37 -3 37 -8 0 -15
9 -15 20 0 11 -5 19 -12 18 -6 -2 -13 5 -14 15 -1 12 0 13 3 2 2 -8 9 -12 15
-9 6 4 13 1 17 -5 6 -8 15 -9 33 -2 21 8 28 7 32 -5 3 -8 11 -12 17 -8 6 3 15
1 19 -6 5 -8 13 -9 26 -2 11 5 36 17 58 28 21 10 41 25 44 33 4 11 8 9 16 -8
9 -20 6 -27 -17 -45z m458 44 c-3 -5 -12 -10 -18 -10 -7 0 -6 4 3 10 19 12 23
12 15 0z m-1005 -20 c0 -5 -4 -10 -10 -10 -5 0 -10 5 -10 10 0 6 5 10 10 10 6
0 10 -4 10 -10z m-224 -87 c-11 -11 -19 6 -11 24 8 17 8 17 12 0 3 -10 2 -21
-1 -24z m264 5 c0 -23 -3 -29 -11 -21 -6 6 -8 20 -4 32 9 30 15 26 15 -11z
m705 22 c-3 -5 -10 -10 -16 -10 -5 0 -9 5 -9 10 0 6 7 10 16 10 8 0 12 -4 9
-10z m-835 -45 c11 -13 8 -15 -13 -15 -28 0 -44 15 -25 23 21 9 25 8 38 -8z
m285 5 c-3 -5 -11 -10 -16 -10 -6 0 -7 5 -4 10 3 6 11 10 16 10 6 0 7 -4 4
-10z m-141 -26 c23 -9 20 -30 -6 -48 -33 -23 -36 -20 -24 19 6 19 12 35 13 35
1 0 8 -3 17 -6z m-211 -44 c-3 -11 -9 -20 -14 -20 -10 0 -12 24 -2 33 13 13
21 7 16 -13z m28 -64 c-7 -29 -7 -36 5 -36 8 0 14 8 14 18 0 22 31 69 59 88
18 13 21 13 21 0 0 -8 -6 -21 -12 -28 -7 -7 -21 -30 -30 -50 -13 -29 -24 -38
-42 -38 -14 0 -28 -4 -31 -10 -4 -6 -13 -5 -24 2 -18 11 -32 8 -63 -14 -31
-22 -32 1 -2 33 22 23 36 29 57 26 24 -3 27 0 27 25 0 15 6 37 13 49 12 19 12
19 15 -5 2 -14 -1 -41 -7 -60z m360 64 c26 -14 24 -25 -7 -39 -20 -9 -25 -17
-21 -32 8 -30 -2 -49 -26 -49 -19 0 -19 1 -4 18 10 10 17 22 17 25 0 13 -34 7
-52 -10 -10 -9 -21 -13 -24 -10 -11 10 25 58 57 75 16 10 29 20 29 25 0 10 8
9 31 -3z m684 0 c-3 -5 -11 -10 -16 -10 -6 0 -7 5 -4 10 3 6 11 10 16 10 6 0
7 -4 4 -10z m-465 -10 c0 -5 -5 -10 -11 -10 -5 0 -7 5 -4 10 3 6 8 10 11 10 2
0 4 -4 4 -10z m-3 -42 c-3 -8 -6 -5 -6 6 -1 11 2 17 5 13 3 -3 4 -12 1 -19z
m4537 -53 c41 -53 29 -65 -15 -15 -22 24 -45 53 -51 63 -9 18 -8 18 16 2 13
-9 36 -32 50 -50z m-5304 35 c0 -5 -4 -10 -10 -10 -5 0 -10 5 -10 10 0 6 5 10
10 10 6 0 10 -4 10 -10z m320 -15 c-5 -14 -20 -39 -32 -55 -20 -28 -26 -30
-89 -30 -70 0 -96 13 -79 40 9 13 10 13 10 0 0 -20 139 -28 141 -8 3 27 4 34
17 56 18 32 45 30 32 -3z m485 2 c-30 -16 -115 -98 -115 -111 -1 -6 -15 -20
-32 -31 -27 -17 -32 -26 -34 -68 -4 -57 -9 -67 -35 -67 -13 0 -19 7 -19 21 0
18 -2 19 -15 9 -9 -7 -18 -10 -22 -7 -11 11 -11 72 -1 85 6 7 8 16 4 20 -4 4
-15 -2 -23 -13 -11 -14 -17 -16 -20 -7 -3 6 -18 12 -35 12 -26 0 -29 3 -22 23
7 22 6 22 -14 3 -12 -10 -19 -23 -16 -27 3 -5 -1 -6 -9 -4 -20 8 -54 -32 -39
-47 8 -8 15 -8 26 2 9 7 23 9 32 6 15 -6 15 -8 0 -25 -14 -15 -14 -20 -4 -25
10 -5 10 -7 1 -12 -15 -7 -53 -89 -53 -115 0 -11 -5 -19 -11 -19 -6 0 -9 17
-7 43 2 28 -1 42 -10 42 -6 0 -12 5 -12 10 0 6 7 10 15 10 8 0 21 10 29 21 14
20 13 22 -10 33 -35 16 -48 14 -69 -9 -10 -11 -24 -20 -31 -20 -17 0 -54 -75
-54 -111 0 -20 -4 -29 -12 -26 -8 2 -13 22 -13 53 l1 49 -55 2 c-30 1 -60 -2
-67 -8 -18 -15 -76 1 -72 20 2 9 12 17 23 19 11 2 29 8 41 13 11 6 27 9 34 7
9 -2 16 6 18 20 3 22 4 23 18 5 13 -17 15 -17 37 8 25 27 51 41 61 32 3 -4 -2
-15 -11 -26 -10 -11 -13 -18 -8 -16 6 2 26 10 47 18 34 13 36 17 31 48 -5 28
-3 33 14 33 10 0 25 -6 32 -12 10 -11 11 -10 6 3 -4 10 0 19 8 22 8 3 18 26
21 51 7 46 19 65 30 47 4 -5 2 -12 -4 -16 -13 -8 -13 -45 0 -45 6 0 10 5 10
10 0 6 5 10 10 10 6 0 10 -7 10 -15 0 -12 4 -13 19 -5 28 14 30 13 28 -17 -2
-22 2 -28 18 -27 39 2 50 9 70 43 29 49 48 53 40 8 -7 -33 -5 -36 16 -33 60 7
81 18 77 41 -6 32 17 62 35 46 16 -13 41 -6 76 21 13 10 27 16 30 12 3 -3 -3
-10 -14 -17z m-845 -6 c0 -13 -29 -35 -37 -28 -7 8 15 37 28 37 5 0 9 -4 9 -9z
m40 -61 c0 -8 -88 -18 -96 -11 -2 2 0 9 6 15 10 13 90 9 90 -4z m520 -16 c0
-8 -4 -12 -10 -9 -5 3 -10 10 -10 16 0 5 5 9 10 9 6 0 10 -7 10 -16z m5160
-46 c0 -18 -2 -20 -9 -8 -6 8 -7 18 -5 22 9 14 14 9 14 -14z m-2313 -23 c2 -1
-2 -16 -7 -34 -12 -41 -2 -92 21 -108 10 -8 15 -21 12 -32 -3 -11 2 -21 11
-24 27 -11 6 -34 -42 -47 -63 -17 -73 -28 -32 -36 29 -6 31 -9 16 -19 -9 -7
-16 -17 -16 -24 0 -21 29 -11 61 20 31 30 54 34 54 8 0 -8 -13 -16 -30 -19
-25 -4 -31 -10 -33 -37 -3 -26 1 -32 20 -35 17 -2 23 -10 24 -28 2 -51 3 -52
28 -46 16 4 26 1 30 -9 3 -8 12 -15 21 -15 8 0 15 -4 15 -10 0 -5 8 -10 18
-10 16 -1 15 -2 -2 -15 -10 -8 -23 -12 -28 -9 -4 3 -24 -4 -43 -16 -29 -18
-35 -27 -35 -57 0 -27 -8 -41 -35 -66 -37 -33 -43 -51 -21 -64 10 -6 11 -14 3
-33 -8 -20 -11 -22 -14 -7 -6 22 -21 22 -45 0 -11 -10 -22 -13 -27 -7 -14 16
-50 116 -65 181 -16 72 -11 85 46 103 38 11 78 60 78 94 0 13 -6 15 -27 10
-16 -4 -34 -12 -42 -18 -11 -8 -15 -8 -19 2 -3 10 -9 9 -29 -3 -14 -9 -28 -14
-31 -10 -4 4 -9 64 -10 133 -5 158 8 220 53 267 31 33 36 35 76 29 24 -4 45
-8 46 -9z m2629 -50 c18 -15 18 -15 -5 -13 -14 2 -26 9 -29 16 -5 17 10 15 34
-3z m-1388 -18 c2 -10 -3 -17 -12 -17 -18 0 -29 16 -21 31 9 14 29 6 33 -14z
m642 -36 c5 -11 10 -22 10 -25 0 -11 -26 5 -38 24 -10 17 -10 20 3 20 8 0 19
-9 25 -19z m-4725 -2 c4 -6 -2 -17 -14 -25 -15 -11 -21 -26 -21 -51 0 -30 -2
-34 -15 -23 -8 7 -15 18 -15 24 0 6 -9 18 -20 26 -25 18 -25 29 -2 46 21 16
78 18 87 3z m-565 -24 c0 -14 -4 -25 -10 -25 -5 0 -10 4 -10 9 0 5 -3 16 -6
25 -4 11 -1 16 10 16 10 0 16 -9 16 -25z m5109 9 c10 -9 -35 -45 -53 -42 -26
4 -31 22 -10 42 14 15 47 14 63 0z m-431 -42 c7 -14 12 -34 12 -45 0 -16 -5
-18 -32 -12 -42 9 -68 32 -68 61 0 20 5 23 38 22 30 0 40 -5 50 -26z m-4330
-13 c15 -24 15 -24 -15 -33 -20 -6 -23 -4 -23 17 0 41 18 49 38 16z m3152 11
c0 -5 -4 -10 -10 -10 -5 0 -10 5 -10 10 0 6 5 10 10 10 6 0 10 -4 10 -10z
m2135 -11 c-7 -18 -45 -42 -53 -34 -3 3 7 17 23 30 32 25 39 26 30 4z m-672
-85 c37 -140 24 -433 -29 -664 -8 -36 -17 -74 -19 -85 -6 -28 -45 -89 -52 -81
-3 3 -1 11 4 18 10 13 40 98 47 134 2 10 12 55 21 99 9 44 18 112 21 150 2 39
6 97 9 130 6 80 -11 271 -30 325 -18 51 -18 53 -2 48 6 -3 20 -36 30 -74z
m-218 46 c3 -5 -1 -10 -10 -10 -9 0 -13 5 -10 10 3 6 8 10 10 10 2 0 7 -4 10
-10z m-4168 -37 c-9 -9 -20 -13 -24 -9 -4 4 1 14 11 22 11 7 22 11 25 9 2 -3
-3 -13 -12 -22z m224 -6 c-10 -9 -11 -8 -5 6 3 10 9 15 12 12 3 -3 0 -11 -7
-18z m4319 -8 c0 -22 -26 -38 -51 -32 -23 6 -25 39 -3 51 24 13 54 3 54 -19z
m-4760 -7 c0 -12 -49 -37 -56 -29 -11 10 17 37 37 37 11 0 19 -4 19 -8z m120
-7 c0 -7 -77 -45 -92 -45 -23 0 46 49 70 50 12 0 22 -2 22 -5z m301 -22 c-12
-20 -14 -14 -5 12 4 9 9 14 11 11 3 -2 0 -13 -6 -23z m5017 -5 c-6 -16 -55
-34 -65 -24 -10 10 26 36 50 36 10 0 17 -5 15 -12z m-222 -16 c-2 -4 0 -16 5
-27 6 -17 8 -17 8 -2 1 10 9 17 21 17 22 0 25 -12 10 -41 -11 -19 -54 -27 -64
-11 -8 14 6 82 15 76 5 -3 8 -8 5 -12z m-5402 0 c2 -4 1 -14 -3 -21 -7 -10
-13 -10 -30 -2 -11 7 -21 16 -21 21 0 12 47 13 54 2z m320 -18 c22 -8 20 -21
-4 -27 -15 -4 -20 0 -20 14 0 21 1 22 24 13z m264 -24 c-7 -11 -16 -20 -20
-20 -5 0 -3 9 4 20 7 11 16 20 20 20 5 0 3 -9 -4 -20z m-203 -10 c-3 -5 -10
-10 -16 -10 -5 0 -9 5 -9 10 0 6 7 10 16 10 8 0 12 -4 9 -10z m238 -124 c-15
-44 -38 -96 -50 -115 -13 -19 -23 -38 -23 -42 0 -5 -7 -9 -15 -9 -20 0 -19 7
10 64 18 35 24 59 20 80 -5 23 0 39 19 65 15 19 26 39 26 45 0 5 8 18 18 29
17 19 17 19 20 -8 2 -15 -9 -64 -25 -109z m4002 124 c3 -5 -1 -10 -9 -10 -8 0
-18 5 -21 10 -3 6 1 10 9 10 8 0 18 -4 21 -10z m-4675 -10 c0 -5 -4 -10 -10
-10 -5 0 -10 5 -10 10 0 6 5 10 10 10 6 0 10 -4 10 -10z m5700 -38 c0 -15 -24
-32 -44 -32 -18 0 -19 1 -1 20 18 20 45 27 45 12z m-5606 -37 c-4 -8 -10 -15
-15 -15 -5 0 -9 -7 -9 -15 0 -20 -16 -19 -24 1 -4 10 1 22 11 30 24 18 44 18
37 -1z m5436 0 c0 -8 -4 -15 -10 -15 -5 0 -10 7 -10 15 0 8 5 15 10 15 6 0 10
-7 10 -15z m-1952 -17 c-3 -7 -15 -15 -28 -16 -21 -3 -22 -2 -11 12 16 19 44
21 39 4z m-3268 -17 c0 -5 -7 -12 -16 -15 -24 -9 -28 -7 -14 9 14 17 30 20 30
6z m90 -11 c0 -5 -5 -10 -11 -10 -5 0 -7 5 -4 10 3 6 8 10 11 10 2 0 4 -4 4
-10z m5206 -18 c-2 -41 -28 -49 -60 -19 -34 32 -29 42 22 43 36 2 39 0 38 -24z
m-4906 -1 c0 -12 -20 -25 -27 -18 -7 7 6 27 18 27 5 0 9 -4 9 -9z m-336 -25
c-3 -9 -10 -13 -16 -10 -5 3 -4 12 3 20 15 18 22 13 13 -10z m5358 -1 c3 -14
1 -28 -3 -31 -5 -3 -9 -16 -9 -30 0 -18 -5 -24 -22 -24 -30 0 -54 15 -39 24 6
4 11 14 11 23 0 17 37 63 51 63 3 0 9 -11 11 -25z m-5021 -37 c5 -110 -1 -163
-22 -181 -12 -10 -24 -15 -27 -13 -2 3 3 37 13 76 13 53 14 74 6 84 -9 10 -9
20 0 40 16 35 29 33 30 -6z m-474 -10 c-3 -8 -6 -5 -6 6 -1 11 2 17 5 13 3 -3
4 -12 1 -19z m313 -77 c0 -6 -4 -13 -10 -16 -5 -3 -10 1 -10 9 0 9 5 16 10 16
6 0 10 -4 10 -9z m-100 -11 c0 -5 -9 -10 -21 -10 -11 0 -17 5 -14 10 3 6 13
10 21 10 8 0 14 -4 14 -10z m189 -67 c-2 -19 -38 -86 -38 -72 -1 24 20 79 30
79 5 0 9 -3 8 -7z m5261 -3 c0 -5 -7 -7 -15 -4 -8 4 -15 8 -15 10 0 2 7 4 15
4 8 0 15 -4 15 -10z m-5654 -16 c-3 -9 -6 -20 -6 -25 0 -5 -4 -9 -10 -9 -11 0
-14 33 -3 43 12 13 25 7 19 -9z m421 -86 c-3 -8 -6 -5 -6 6 -1 11 2 17 5 13 3
-3 4 -12 1 -19z m2643 18 c0 -2 -3 -11 -6 -20 -9 -23 -34 -20 -34 4 0 13 7 20
20 20 11 0 20 -2 20 -4z m-2714 -43 c-10 -10 -19 5 -10 18 6 11 8 11 12 0 2
-7 1 -15 -2 -18z m2813 -3 c14 -1 13 -2 -2 -11 -10 -6 -25 -8 -32 -5 -8 3 -21
-1 -29 -9 -12 -13 -15 -12 -20 1 -10 25 4 36 36 30 17 -3 38 -6 47 -6z m-2799
-50 c0 -5 -5 -10 -11 -10 -5 0 -7 5 -4 10 3 6 8 10 11 10 2 0 4 -4 4 -10z
m-23 -52 c-3 -8 -6 -5 -6 6 -1 11 2 17 5 13 3 -3 4 -12 1 -19z m-307 -48 c0
-10 -26 -20 -33 -13 -3 3 -3 11 0 18 5 14 33 9 33 -5z m-397 -48 c-6 -42 -32
-70 -53 -57 -11 7 11 57 38 88 20 23 22 19 15 -31z m-63 4 c0 -3 -4 -8 -10
-11 -5 -3 -10 -1 -10 4 0 6 5 11 10 11 6 0 10 -2 10 -4z m803 -163 c-7 -2 -19
-2 -25 0 -7 3 -2 5 12 5 14 0 19 -2 13 -5z m-163 -27 c0 -11 -19 -15 -25 -6
-3 5 1 10 9 10 9 0 16 -2 16 -4z m-534 -252 c-3 -9 -6 -21 -6 -27 0 -6 -7 -4
-16 5 -18 18 -11 38 13 38 10 0 13 -6 9 -16z m647 -40 c4 -4 -3 -20 -14 -36
-26 -36 -36 -29 -19 12 12 30 21 36 33 24z m-326 -90 c-3 -3 -12 -4 -19 -1 -8
3 -5 6 6 6 11 1 17 -2 13 -5z m93 2 c0 -3 -4 -8 -10 -11 -5 -3 -10 -1 -10 4 0
6 5 11 10 11 6 0 10 -2 10 -4z m160 -4 c0 -13 -50 -82 -60 -82 -22 0 -5 33 23
43 9 3 17 16 17 27 0 11 5 20 10 20 6 0 10 -3 10 -8z m115 -32 c-4 -11 -8 -39
-10 -63 -4 -44 -20 -97 -30 -97 -4 0 -3 5 1 11 3 6 1 15 -6 19 -11 7 -10 17 3
52 9 23 21 55 26 71 12 31 26 37 16 7z m-365 -19 c0 -19 -17 -38 -25 -29 -7 7
7 48 16 48 5 0 9 -9 9 -19z m-90 -51 c0 -30 -4 -40 -16 -40 -11 0 -14 5 -10
16 3 9 6 27 6 40 0 13 5 24 10 24 6 0 10 -18 10 -40z m245 14 c-11 -8 -19 -17
-17 -21 2 -3 -10 -14 -27 -24 -17 -10 -31 -23 -31 -29 0 -5 -4 -10 -10 -10 -5
0 -7 7 -3 16 5 14 3 14 -16 3 -11 -8 -21 -19 -21 -26 0 -6 -21 -16 -47 -22
-27 -7 -55 -13 -63 -16 -8 -2 -22 -4 -31 -4 -9 -1 -20 -11 -23 -23 -6 -22 -7
-22 -21 -4 -17 22 -11 36 15 36 10 0 31 6 47 14 74 36 160 75 179 80 12 4 29
15 39 26 10 11 25 20 34 20 13 -1 12 -4 -4 -16z m145 -9 c10 -12 9 -15 -7 -15
-11 0 -30 -11 -43 -26 -24 -25 -109 -68 -118 -60 -9 9 11 27 56 50 26 13 56
33 66 45 23 25 30 26 46 6z m4360 -46 c0 -5 -7 -9 -15 -9 -15 0 -20 12 -9 23
8 8 24 -1 24 -14z m-4360 -42 c0 4 4 1 9 -7 10 -15 6 -30 -10 -30 -5 0 -9 7
-9 15 0 33 -24 9 -63 -60 -12 -22 -22 -44 -22 -50 -1 -21 -17 -35 -41 -35 -15
0 -23 4 -19 10 4 6 11 8 16 5 5 -4 12 2 15 12 9 30 55 117 71 135 12 13 20 15
34 7 11 -5 19 -6 19 -2z m2826 -35 c-4 -3 -11 -1 -17 5 -8 8 -8 15 2 26 12 13
14 13 17 -5 2 -11 1 -22 -2 -26z m-3006 10 c0 -10 -110 -62 -132 -62 -34 0
-27 19 9 26 21 4 40 10 43 13 15 19 80 38 80 23z m4292 -34 c-6 -6 -16 -7 -22
-3 -9 6 -9 9 1 16 17 10 34 0 21 -13z m75 -44 c0 -7 -6 -10 -14 -7 -7 3 -13 8
-13 12 0 4 6 8 13 8 8 0 14 -6 14 -13z m-4589 -24 c13 -16 32 -30 43 -30 11 0
31 -7 45 -16 18 -13 36 -15 74 -10 52 7 73 -9 25 -19 -14 -3 -36 -7 -48 -10
-13 -2 -38 -1 -55 4 -23 7 -32 6 -36 -5 -8 -22 -28 -17 -21 6 4 13 -1 25 -15
37 -25 21 -55 73 -42 73 4 0 18 -13 30 -30z m327 -97 c-16 -43 -16 -75 0 -117
16 -42 16 -48 3 -64 -9 -9 -19 -33 -24 -52 -4 -19 -8 -37 -9 -40 -14 -49 -19
-60 -26 -60 -5 0 -9 7 -9 15 0 8 -5 15 -10 15 -6 0 -13 -7 -16 -15 -4 -8 -14
-15 -23 -15 -12 0 -10 5 10 23 22 19 27 33 33 97 7 83 33 198 48 218 15 18 31
15 23 -5z m-415 -97 c0 -7 -9 -16 -21 -19 -11 -3 -23 -15 -26 -26 -8 -29 -23
-26 -23 4 0 20 8 29 33 40 40 18 37 18 37 1z m4780 4 c0 -5 -10 -10 -22 -10
-19 0 -20 2 -8 10 19 13 30 13 30 0z m-30 -54 c0 -3 -4 -8 -10 -11 -5 -3 -10
-1 -10 4 0 6 5 11 10 11 6 0 10 -2 10 -4z m-4613 -22 c-11 -11 -119 -45 -124
-40 -11 10 64 46 96 46 19 0 31 -3 28 -6z m-50 -71 c-9 -9 -19 -14 -23 -11
-10 10 6 28 24 28 15 0 15 -1 -1 -17z m134 0 c-5 -10 -20 -30 -33 -46 -13 -15
-34 -42 -48 -59 -14 -18 -55 -63 -92 -101 -38 -38 -68 -72 -68 -76 0 -4 -17
-26 -38 -48 -34 -36 -38 -38 -34 -16 2 13 14 30 26 38 11 9 21 19 21 23 2 19
17 52 25 52 14 0 133 119 175 175 45 60 88 97 66 58z m224 -12 c-3 -6 -11 -11
-17 -11 -6 0 -6 6 2 15 14 17 26 13 15 -4z m-395 -35 c0 -19 -33 -52 -38 -38
-4 14 16 52 28 52 6 0 10 -6 10 -14z m-40 -81 c0 -9 -7 -18 -15 -21 -8 -3 -17
-16 -21 -27 -14 -49 -47 -107 -60 -107 -19 0 -19 -1 21 70 19 34 35 65 35 69
0 10 22 31 32 31 4 0 8 -7 8 -15z m271 -18 l-23 -22 17 28 c10 15 20 25 23 22
3 -3 -5 -16 -17 -28z m-445 -24 c-10 -10 -19 5 -10 18 6 11 8 11 12 0 2 -7 1
-15 -2 -18z m531 -19 c-3 -3 -12 -4 -19 -1 -8 3 -5 6 6 6 11 1 17 -2 13 -5z
m50 0 c-3 -3 -12 -4 -19 -1 -8 3 -5 6 6 6 11 1 17 -2 13 -5z m-497 -18 c0 -2
-7 -9 -15 -16 -12 -10 -15 -10 -15 4 0 9 7 16 15 16 8 0 15 -2 15 -4z m244
-73 c-4 -21 -15 -49 -25 -62 -11 -13 -19 -29 -19 -35 0 -6 -10 -22 -21 -36
-17 -20 -19 -21 -14 -5 4 11 10 31 14 45 6 23 62 130 69 130 2 0 0 -17 -4 -37z
m245 -13 c-13 -22 -26 -40 -31 -40 -4 0 -8 -7 -8 -15 0 -8 -5 -15 -10 -15 -9
0 12 45 47 103 2 4 9 7 14 7 6 0 0 -18 -12 -40z m-534 10 c-3 -6 0 -13 8 -16
21 -8 17 -36 -5 -31 -13 4 -18 0 -18 -13 0 -11 -4 -21 -10 -25 -5 -3 -7 -12
-4 -20 6 -14 -33 -41 -44 -31 -3 3 1 17 8 31 7 14 11 28 7 31 -9 9 20 61 40
73 23 13 26 13 18 1z m5295 -162 c0 -18 -2 -20 -9 -8 -6 8 -7 18 -5 22 9 14
14 9 14 -14z m150 -3 c0 -14 -2 -25 -4 -25 -2 0 -6 11 -8 25 -3 14 -1 25 3 25
5 0 9 -11 9 -25z m-5269 -15 c-21 -18 -71 -28 -71 -15 0 8 62 34 80 34 10 0 8
-6 -9 -19z m5186 -32 c-3 -7 -5 -2 -5 12 0 14 2 19 5 13 2 -7 2 -19 0 -25z
m-727 5 c0 -5 -4 -14 -9 -21 -7 -11 -9 -11 -14 1 -3 8 -3 18 0 21 9 8 23 7 23
-1z m-4687 -98 c-3 -9 -8 -14 -10 -11 -3 3 -2 9 2 15 9 16 15 13 8 -4z m5434
-42 c-3 -10 -5 -4 -5 12 0 17 2 24 5 18 2 -7 2 -21 0 -30z m361 -14 c2 -17 0
-20 -6 -10 -8 11 -10 11 -15 0 -3 -8 -6 -1 -6 14 -1 35 23 32 27 -4z m-38 -43
c14 -18 14 -18 -7 -6 -12 8 -19 18 -16 23 3 4 6 7 7 5 1 -2 8 -12 16 -22z
m-25 -36 c3 -5 1 -10 -4 -10 -6 0 -11 5 -11 10 0 6 2 10 4 10 3 0 8 -4 11 -10z
m-1119 -42 c-4 -13 -9 -35 -12 -50 -4 -16 -10 -28 -15 -28 -5 0 -9 -7 -9 -15
0 -30 -18 -14 -25 22 -6 32 -3 40 14 52 12 7 21 20 21 27 0 8 7 14 16 14 12 0
15 -6 10 -22z m-86 -104 c0 -35 -15 -30 -16 6 -1 16 3 27 7 24 5 -3 9 -16 9
-30z m-20 -98 c0 -3 -4 -8 -10 -11 -5 -3 -10 -1 -10 4 0 6 5 11 10 11 6 0 10
-2 10 -4z m30 -51 c0 -2 -7 -5 -15 -9 -9 -3 -15 0 -15 9 0 9 6 12 15 9 8 -4
15 -7 15 -9z m-40 -45 c0 -11 -4 -20 -9 -20 -5 0 -7 9 -4 20 3 11 7 20 9 20 2
0 4 -9 4 -20z m-3841 -127 c-29 -54 -49 -83 -49 -72 0 14 42 115 57 137 32 50
27 -2 -8 -65z m3311 3 c0 -3 -4 -8 -10 -11 -5 -3 -10 -1 -10 4 0 6 5 11 10 11
6 0 10 -2 10 -4z m-173 -113 c-3 -10 -5 -4 -5 12 0 17 2 24 5 18 2 -7 2 -21 0
-30z m-3127 -78 c0 -2 -15 -11 -34 -20 -28 -14 -35 -24 -46 -71 -7 -30 -18
-58 -23 -61 -7 -4 -7 1 -3 13 5 10 11 39 14 64 6 49 32 79 70 80 12 0 22 -2
22 -5z m110 -54 c0 -12 -20 -25 -27 -18 -7 7 6 27 18 27 5 0 9 -4 9 -9z m2793
-145 c9 -23 -18 -39 -33 -21 -10 12 -10 15 4 15 10 0 14 5 11 10 -3 6 -2 10 3
10 6 0 12 -6 15 -14z m-2757 -42 c-10 -14 -20 -23 -23 -20 -3 3 2 17 11 32 10
14 20 23 23 20 3 -3 -2 -17 -11 -32z m-53 -68 c-10 -14 -21 -26 -26 -26 -4 0
-17 -11 -29 -25 -22 -25 -58 -34 -58 -15 0 6 12 16 28 22 15 7 42 27 61 45 40
37 52 37 24 -1z m-68 14 c3 -5 -3 -10 -14 -10 -12 0 -21 5 -21 10 0 6 6 10 14
10 8 0 18 -4 21 -10z m-79 -26 c-5 -14 -9 -15 -19 -5 -9 9 -9 14 3 21 18 11
24 6 16 -16z m224 -11 c0 -5 -4 -15 -10 -23 -11 -18 -25 -7 -17 15 6 15 27 21
27 8z m-229 -13 c15 0 10 -17 -6 -24 -22 -8 -45 4 -38 20 3 9 12 13 20 10 8
-3 19 -6 24 -6z m226 -76 c-30 -16 -44 -14 -32 5 3 6 18 11 33 11 l27 -1 -28
-15z m2563 -19 c0 -8 -9 -15 -20 -15 -20 0 -26 11 -13 23 12 13 33 7 33 -8z
m174 -33 c3 -5 -1 -9 -9 -9 -8 0 -12 4 -9 9 3 4 7 8 9 8 2 0 6 -4 9 -8z m-244
-62 c0 -5 -7 -10 -15 -10 -8 0 -15 -4 -15 -10 0 -5 8 -10 17 -10 19 0 9 -13
-12 -16 -19 -3 -21 42 -2 49 20 9 27 8 27 -3z m114 -15 c-3 -7 -12 -11 -19 -8
-11 4 -12 8 -2 18 15 16 28 10 21 -10z m-3024 -90 c0 -9 -6 -12 -16 -8 -13 5
-13 7 -2 14 17 11 18 11 18 -6z m2854 -37 c6 -31 4 -37 -14 -43 -11 -3 -20
-13 -20 -20 0 -9 7 -12 18 -9 16 5 16 4 -1 -9 -11 -9 -14 -17 -7 -20 6 -3 5
-4 -2 -3 -7 1 -15 11 -17 22 -2 10 -8 22 -14 26 -7 4 -4 12 6 23 10 9 17 24
17 34 0 15 20 45 26 38 1 -1 4 -19 8 -39z m18 0 c-7 -7 -12 -8 -12 -2 0 14 12
26 19 19 2 -3 -1 -11 -7 -17z m-2832 -29 c0 -12 -5 -19 -11 -17 -6 2 -10 7
-10 11 1 4 1 14 1 23 0 8 5 12 10 9 6 -3 10 -15 10 -26z m2710 -80 c-7 -11
-14 -18 -17 -15 -3 3 0 12 7 21 18 21 23 19 10 -6z m35 11 c3 -5 1 -10 -4 -10
-6 0 -11 5 -11 10 0 6 2 10 4 10 3 0 8 -4 11 -10z m-975 -4 c0 -3 -4 -8 -10
-11 -5 -3 -10 -1 -10 4 0 6 5 11 10 11 6 0 10 -2 10 -4z m823 -9 c4 3 7 -2 7
-13 0 -13 -8 -19 -25 -20 -21 -2 -23 1 -15 12 7 7 8 19 4 26 -6 10 -5 11 8 1
8 -7 18 -10 21 -6z m38 -4 c8 -9 9 -14 2 -10 -6 4 -14 1 -16 -5 -3 -7 -6 -3
-6 10 -1 26 2 27 20 5z m-966 -23 c3 -5 1 -10 -4 -10 -6 0 -11 5 -11 10 0 6 2
10 4 10 3 0 8 -4 11 -10z"/>
<path d="M2670 6456 c0 -9 7 -16 16 -16 9 0 14 5 12 12 -6 18 -28 21 -28 4z"/>
<path d="M1193 5603 c-4 -10 -11 -21 -17 -25 -22 -15 9 -29 39 -18 19 7 31 7
40 0 9 -8 14 -5 18 10 6 22 -21 28 -40 9 -18 -18 -35 -1 -23 22 8 13 7 19 0
19 -6 0 -14 -8 -17 -17z"/>
<path d="M969 5591 c-1 -3 -1 -10 0 -15 1 -4 -3 -24 -9 -42 -15 -45 -8 -81 8
-41 6 15 18 27 26 27 7 0 19 6 25 14 9 11 7 15 -11 21 l-23 8 23 4 c12 2 22 8
22 13 0 9 -59 20 -61 11z"/>
<path d="M1086 5551 c-4 -5 -3 -17 0 -28 5 -17 5 -17 -9 0 -16 19 -42 14 -51
-9 -4 -11 4 -14 33 -14 26 0 41 5 45 16 4 11 13 13 27 9 18 -6 21 -4 16 10 -4
9 -7 19 -7 21 0 8 -49 4 -54 -5z"/>
<path d="M1172 5510 c-9 -24 -9 -31 0 -28 21 7 34 36 22 48 -9 9 -14 3 -22
-20z"/>
<path d="M1045 5440 c-3 -5 -2 -10 4 -10 5 0 13 5 16 10 3 6 2 10 -4 10 -5 0
-13 -4 -16 -10z"/>
<path d="M1083 5438 c2 -7 12 -13 22 -13 10 0 20 6 23 13 2 7 -6 12 -23 12
-17 0 -25 -5 -22 -12z"/>
<path d="M1288 5427 c-16 -13 -28 -31 -28 -40 0 -25 30 -34 42 -13 5 9 13 14
18 11 5 -3 11 -1 15 5 3 5 1 10 -6 10 -7 0 -6 8 5 25 15 23 15 25 -1 25 -10
-1 -30 -11 -45 -23z"/>
<path d="M1100 5391 c0 -19 17 -38 25 -29 7 7 -7 48 -16 48 -5 0 -9 -9 -9 -19z"/>
<path d="M1061 5361 c-7 -5 -12 -14 -10 -20 3 -6 9 -7 18 -2 7 5 12 14 10 20
-3 6 -9 7 -18 2z"/>
<path d="M1136 5328 c-3 -7 -7 -31 -10 -53 -5 -35 -2 -41 19 -51 19 -9 27 -9
35 1 8 10 7 16 -5 23 -15 8 -14 10 7 24 13 8 34 19 48 23 24 7 40 22 40 38 0
13 -130 8 -134 -5z"/>
<path d="M1980 4750 c-221 -18 -427 -73 -597 -158 -212 -107 -280 -243 -290
-577 -6 -181 7 -352 32 -438 16 -55 55 -107 81 -107 13 0 12 6 -6 34 -11 19
-23 57 -27 85 l-6 50 30 -1 c17 -1 35 2 41 5 5 4 12 0 16 -8 3 -8 16 -15 28
-15 19 0 20 -2 8 -10 -12 -8 -11 -10 8 -10 12 0 22 5 22 10 0 6 7 10 15 10 7
0 18 7 23 16 8 15 10 15 16 -1 3 -9 3 -21 0 -27 -4 -5 1 -8 10 -6 10 1 16 6
14 9 -2 3 3 13 10 22 21 24 -1 57 -38 57 -35 0 -37 8 -10 52 32 52 27 66 -26
74 -40 6 -48 11 -60 39 -18 44 -37 49 -80 20 -20 -14 -40 -23 -44 -20 -4 2
-10 21 -13 42 -7 43 13 83 41 83 10 0 27 7 38 15 19 15 19 15 -1 31 -11 8 -30
13 -43 11 -14 -3 -26 1 -29 9 -6 17 24 84 39 84 5 0 8 6 5 14 -3 7 0 19 6 26
9 9 7 11 -8 8 -18 -3 -20 2 -17 37 9 137 97 257 235 324 244 116 440 161 705
162 143 0 202 -7 285 -33 40 -12 44 -17 25 -36 -16 -16 -28 -15 -28 2 0 19
-24 27 -61 19 -30 -6 -30 -6 -10 -24 11 -11 23 -19 27 -19 3 0 17 -9 31 -20
14 -11 39 -20 54 -20 29 0 39 -14 17 -23 -10 -4 -10 -8 1 -15 7 -5 10 -15 7
-21 -10 -16 25 -91 42 -91 7 0 11 -4 8 -9 -3 -5 1 -14 9 -21 9 -7 13 -20 10
-29 -3 -12 3 -20 22 -27 25 -8 25 -10 10 -26 -17 -17 -50 -15 -75 5 -21 16
-27 -1 -8 -22 10 -11 32 -23 50 -27 30 -7 30 -7 8 -17 -25 -11 -25 -25 1 -41
12 -8 21 -6 35 7 25 23 55 22 50 0 -2 -10 -11 -17 -21 -17 -11 1 -17 -5 -17
-20 0 -26 9 -40 35 -54 11 -6 27 -30 35 -54 26 -71 43 -61 68 41 43 174 54
354 27 432 -18 51 -65 103 -115 129 -122 62 -420 99 -650 80z m620 -400 c0 -5
-4 -10 -10 -10 -5 0 -10 5 -10 10 0 6 5 10 10 10 6 0 10 -4 10 -10z"/>
<path d="M1053 4433 c-15 -5 -17 -23 -4 -23 5 0 11 7 15 15 3 8 4 15 3 14 -1
0 -8 -3 -14 -6z"/>
<path d="M1005 4300 c-17 -18 -17 -20 -1 -20 9 0 19 7 23 15 9 25 -2 27 -22 5z"/>
<path d="M1236 4254 c-5 -14 -4 -15 9 -4 17 14 19 20 6 20 -5 0 -12 -7 -15
-16z"/>
<path d="M2412 4165 c-20 -11 -21 -13 -6 -26 14 -12 14 -14 0 -25 -15 -10 -15
-13 1 -32 19 -21 72 -42 107 -42 23 0 46 39 46 77 0 26 -41 48 -72 39 -10 -2
-25 2 -32 10 -17 16 -14 16 -44 -1z"/>
<path d="M2220 3820 c0 -5 5 -10 10 -10 6 0 10 5 10 10 0 6 -4 10 -10 10 -5 0
-10 -4 -10 -10z"/>
<path d="M2120 3788 c-16 -6 -20 -12 -12 -15 18 -7 62 5 62 17 0 12 -18 12
-50 -2z"/>
<path d="M2490 3781 c0 -6 -9 -11 -19 -11 -23 0 -38 -19 -19 -24 7 -1 28 -8
46 -14 30 -10 32 -9 32 14 0 13 1 27 3 32 1 4 -8 8 -20 10 -13 2 -23 -1 -23
-7z"/>
<path d="M2335 3751 c-6 -5 -19 -11 -29 -13 -11 -1 -20 -12 -22 -22 -1 -10 -8
-22 -15 -26 -6 -4 -8 -13 -5 -19 12 -19 -4 -49 -29 -55 -16 -4 -25 -14 -25
-26 0 -28 17 -34 30 -10 6 11 17 20 25 20 8 0 15 4 15 10 0 15 50 7 89 -14 41
-22 74 -11 120 39 l31 34 -25 27 c-17 18 -31 25 -46 21 -29 -8 -49 2 -49 24 0
14 -7 19 -28 19 -15 0 -32 -4 -37 -9z m20 -81 c-3 -5 -10 -10 -16 -10 -5 0 -9
5 -9 10 0 6 7 10 16 10 8 0 12 -4 9 -10z"/>
<path d="M2097 3724 c-3 -4 -2 -15 4 -25 7 -14 17 -17 39 -12 23 4 30 2 30 -9
0 -9 -8 -15 -17 -14 -39 2 -113 -24 -113 -40 0 -13 5 -15 23 -9 12 4 48 10 79
12 46 4 60 9 73 29 12 19 13 28 3 43 -14 23 -104 42 -121 25z"/>
<path d="M1459 3597 c5 -12 5 -31 1 -42 -4 -11 -3 -28 2 -37 6 -12 5 -18 -3
-18 -8 0 -8 -4 -1 -13 15 -18 108 -7 104 12 -2 9 5 12 23 9 14 -3 25 -1 25 4
0 6 7 8 15 4 8 -3 15 -1 15 4 0 6 7 10 15 10 8 0 15 7 15 15 0 8 -9 15 -20 15
-10 0 -28 10 -39 21 -19 21 -30 24 -118 34 -40 4 -42 4 -34 -18z"/>
<path d="M1874 3599 c-3 -6 -1 -14 5 -18 17 -11 84 2 89 17 5 16 -84 17 -94 1z"/>
<path d="M2345 3570 c-3 -5 1 -10 9 -10 9 0 16 5 16 10 0 6 -4 10 -9 10 -6 0
-13 -4 -16 -10z"/>
<path d="M900 5030 c0 -5 5 -10 10 -10 6 0 10 5 10 10 0 6 -4 10 -10 10 -5 0
-10 -4 -10 -10z"/>
<path d="M945 5010 c3 -5 8 -10 11 -10 2 0 4 5 4 10 0 6 -5 10 -11 10 -5 0 -7
-4 -4 -10z"/>
<path d="M812 7048 c4 -28 39 -36 58 -13 10 12 10 15 -4 15 -9 0 -16 5 -16 10
0 6 -9 10 -21 10 -15 0 -20 -5 -17 -22z"/>
<path d="M1539 7048 c6 -17 16 -22 35 -21 32 2 33 -10 4 -30 -13 -8 -20 -18
-15 -23 9 -9 57 34 57 52 0 7 10 20 22 28 21 15 19 16 -44 16 -66 0 -67 -1
-59 -22z"/>
<path d="M1685 7061 c3 -5 -2 -16 -10 -24 -8 -9 -15 -23 -15 -32 0 -8 -6 -18
-14 -21 -8 -3 -16 -14 -19 -25 -7 -25 19 -25 33 0 5 11 20 21 32 23 13 2 29
15 36 31 16 33 44 37 40 5 -5 -35 9 -32 51 12 l38 40 -89 0 c-52 0 -87 -4 -83
-9z"/>
<path d="M2118 7052 c-7 -11 -23 -24 -35 -31 -17 -9 -23 -21 -23 -46 l0 -34
35 20 c19 11 37 30 41 41 3 12 18 32 32 45 l25 23 -31 0 c-19 0 -36 -7 -44
-18z"/>
<path d="M2202 7050 c-10 -17 -10 -20 6 -20 11 0 27 9 37 20 18 19 17 20 -6
20 -13 0 -30 -9 -37 -20z"/>
<path d="M2303 7054 c-32 -16 -48 -42 -18 -30 8 3 22 9 31 12 10 4 15 2 13 -7
-1 -8 1 -26 5 -41 9 -31 36 -38 36 -10 0 25 27 61 48 61 44 2 108 14 117 22
14 14 -92 11 -116 -3 -17 -10 -23 -10 -26 0 -6 17 -51 15 -90 -4z"/>
<path d="M2740 7063 c0 -4 12 -17 28 -30 20 -16 23 -22 11 -23 -19 0 -31 -22
-21 -36 4 -5 13 -9 20 -8 6 1 18 2 26 3 27 2 29 39 4 71 -20 26 -68 42 -68 23z"/>
<path d="M2935 7060 c3 -5 8 -10 11 -10 2 0 4 5 4 10 0 6 -5 10 -11 10 -5 0
-7 -4 -4 -10z"/>
<path d="M2220 6964 c0 -9 5 -14 12 -12 18 6 21 28 4 28 -9 0 -16 -7 -16 -16z"/>
<path d="M2105 6921 c-9 -16 13 -23 35 -11 11 6 20 13 20 15 0 9 -49 5 -55 -4z"/>
<path d="M555 6900 c-8 -12 40 -24 62 -16 15 6 15 8 3 16 -20 13 -57 13 -65 0z"/>
<path d="M1565 6879 c-4 -6 -5 -12 -2 -15 2 -3 7 2 10 11 7 17 1 20 -8 4z"/>
<path d="M2445 6810 c-10 -11 -13 -20 -8 -20 13 0 38 29 31 35 -3 3 -13 -4
-23 -15z"/>
<path d="M345 6751 c-9 -28 7 -48 23 -28 9 10 8 18 -2 32 -13 18 -14 18 -21
-4z"/>
<path d="M1703 6675 c0 -8 4 -15 9 -15 4 0 8 7 8 15 0 8 -4 15 -8 15 -5 0 -9
-7 -9 -15z"/>
<path d="M1850 6679 c0 -5 5 -7 10 -4 6 3 10 8 10 11 0 2 -4 4 -10 4 -5 0 -10
-5 -10 -11z"/>
<path d="M2050 6650 c0 -5 5 -10 10 -10 6 0 10 5 10 10 0 6 -4 10 -10 10 -5 0
-10 -4 -10 -10z"/>
<path d="M665 6637 c-4 -10 -5 -21 -1 -24 10 -10 18 4 13 24 -4 17 -4 17 -12
0z"/>
<path d="M1710 6630 c-9 -16 -8 -20 5 -20 8 0 15 2 15 4 0 2 3 11 6 20 9 23
-13 20 -26 -4z"/>
<path d="M1887 6642 c-5 -7 -13 -10 -18 -7 -5 4 -9 -3 -9 -14 0 -11 5 -23 11
-27 16 -10 31 11 27 37 -2 17 -6 20 -11 11z"/>
<path d="M2014 6602 c-15 -10 -44 -67 -44 -87 0 -10 10 -5 29 17 42 49 52 95
15 70z"/>
<path d="M1820 6581 c-55 -16 -90 -34 -90 -47 0 -18 3 -18 42 6 18 11 40 20
49 20 9 0 22 7 29 15 13 16 10 17 -30 6z"/>
<path d="M2382 6578 c-7 -7 -12 -18 -12 -25 0 -7 -5 -13 -12 -13 -6 0 -8 -3
-5 -6 8 -8 35 13 48 38 11 20 -1 24 -19 6z"/>
<path d="M1913 6561 l-42 -17 30 -13 c17 -7 31 -12 33 -10 22 33 35 59 29 58
-5 -1 -27 -9 -50 -18z"/>
<path d="M1565 6540 c-3 -5 1 -10 9 -10 9 0 16 5 16 10 0 6 -4 10 -9 10 -6 0
-13 -4 -16 -10z"/>
<path d="M2115 6540 c-3 -6 1 -7 9 -4 18 7 21 14 7 14 -6 0 -13 -4 -16 -10z"/>
<path d="M1830 6523 c-8 -2 -21 -7 -29 -9 -11 -4 -12 -7 -3 -16 9 -9 18 -8 37
2 37 20 34 36 -5 23z"/>
<path d="M2060 6505 c-10 -12 -10 -15 4 -15 9 0 16 7 16 15 0 8 -2 15 -4 15
-2 0 -9 -7 -16 -15z"/>
<path d="M2330 6493 c-47 -9 -47 -24 0 -21 25 2 44 7 43 13 -2 12 -11 13 -43
8z"/>
<path d="M1470 6480 c0 -5 5 -10 10 -10 6 0 10 5 10 10 0 6 -4 10 -10 10 -5 0
-10 -4 -10 -10z"/>
<path d="M1620 6480 c0 -5 5 -10 10 -10 6 0 10 5 10 10 0 6 -4 10 -10 10 -5 0
-10 -4 -10 -10z"/>
<path d="M1545 6470 c-8 -13 -10 -69 -2 -76 13 -14 29 10 23 37 -4 20 -1 31
12 38 15 9 15 10 -5 11 -12 0 -25 -5 -28 -10z"/>
<path d="M2392 6471 c4 -13 18 -16 19 -4 0 4 -5 9 -11 12 -7 2 -11 -2 -8 -8z"/>
<path d="M1453 6395 c-8 -22 6 -33 17 -15 13 20 12 30 0 30 -6 0 -13 -7 -17
-15z"/>
<path d="M1360 6390 c0 -5 5 -10 11 -10 5 0 7 5 4 10 -3 6 -8 10 -11 10 -2 0
-4 -4 -4 -10z"/>
<path d="M1279 6325 c-18 -25 -43 -48 -56 -51 -13 -4 -23 -13 -23 -22 0 -13 2
-13 18 1 10 10 26 17 36 17 9 0 29 8 43 17 19 13 28 14 31 5 5 -17 47 -15 61
2 7 8 11 27 9 43 -3 25 -7 28 -45 31 -39 3 -43 0 -74 -43z"/>
<path d="M1516 6357 c-28 -20 -12 -39 20 -25 24 11 28 28 8 35 -5 2 -18 -3
-28 -10z"/>
<path d="M640 6350 c0 -5 5 -10 10 -10 6 0 10 5 10 10 0 6 -4 10 -10 10 -5 0
-10 -4 -10 -10z"/>
<path d="M1457 6353 c-12 -11 -8 -23 8 -23 8 0 15 7 15 15 0 16 -12 20 -23 8z"/>
<path d="M550 6342 c0 -21 28 -45 45 -38 17 6 17 7 0 26 -18 20 -45 27 -45 12z"/>
<path d="M477 6334 c-13 -13 -7 -44 7 -44 8 0 17 4 20 9 7 11 -18 44 -27 35z"/>
<path d="M414 6308 c-4 -6 -2 -14 4 -16 7 -2 12 -17 12 -34 0 -23 4 -29 18
-26 9 2 15 11 13 19 -3 8 -4 26 -3 42 1 20 -3 27 -18 27 -10 0 -22 -5 -26 -12z"/>
<path d="M1460 6280 c0 -5 5 -10 10 -10 6 0 10 5 10 10 0 6 -4 10 -10 10 -5 0
-10 -4 -10 -10z"/>
<path d="M521 6233 c-27 -5 -51 -25 -51 -42 0 -6 -5 -11 -11 -11 -5 0 -7 -4
-4 -10 11 -18 30 -11 68 25 36 34 44 46 30 44 -5 -1 -19 -4 -32 -6z"/>
<path d="M1417 6206 c-21 -14 -42 -26 -47 -26 -6 0 -10 -7 -10 -15 0 -17 21
-20 36 -6 5 5 19 12 32 16 35 10 28 -26 -11 -51 -38 -26 -73 -79 -56 -89 6 -4
13 2 16 13 4 16 16 22 54 27 54 8 71 35 22 35 l-28 0 21 18 c12 9 27 27 33 40
10 18 9 22 -3 22 -8 0 -16 9 -18 21 -3 20 -4 20 -41 -5z"/>
<path d="M572 6178 c-26 -16 -32 -26 -28 -43 3 -12 -1 -30 -9 -42 -13 -18 -12
-21 11 -33 31 -17 44 -5 66 60 29 81 18 96 -40 58z"/>
<path d="M1210 6190 c0 -5 5 -10 10 -10 6 0 10 5 10 10 0 6 -4 10 -10 10 -5 0
-10 -4 -10 -10z"/>
<path d="M1294 6146 c-3 -8 -4 -22 -2 -31 2 -13 8 -10 26 14 22 31 22 31 2 31
-11 0 -23 -6 -26 -14z"/>
<path d="M456 6104 c-9 -23 2 -34 32 -34 25 1 25 2 10 14 -10 7 -18 18 -18 25
0 17 -17 13 -24 -5z"/>
<path d="M1250 6080 c-6 -10 -28 -24 -49 -30 -70 -18 -79 -65 -15 -72 28 -3
33 -1 29 13 -3 10 1 19 10 22 11 5 14 0 13 -18 -1 -14 -6 -25 -10 -25 -4 0 -8
-9 -8 -20 0 -11 4 -20 8 -20 18 0 45 27 40 41 -2 7 6 22 19 32 28 22 30 58 5
80 -24 22 -29 21 -42 -3z"/>
<path d="M264 6059 c-45 -13 -62 -35 -42 -56 16 -15 43 -10 33 7 -8 13 25 28
46 23 14 -4 19 0 19 16 0 23 -8 24 -56 10z"/>
<path d="M495 6019 c-4 -6 -4 -13 -1 -16 8 -8 36 5 36 17 0 13 -27 13 -35 -1z"/>
<path d="M1316 5991 c-11 -12 -16 -24 -12 -28 9 -9 39 22 34 37 -2 7 -10 4
-22 -9z"/>
<path d="M316 5946 c-9 -14 -16 -32 -16 -41 0 -9 -7 -18 -15 -21 -16 -7 -21
-34 -6 -34 31 0 84 91 64 111 -7 7 -16 2 -27 -15z"/>
<path d="M195 5900 c-4 -6 -21 -8 -39 -4 -34 6 -66 -14 -133 -84 -28 -28 -28
-31 -6 -47 19 -14 56 -5 84 21 9 8 39 17 68 21 36 4 51 10 51 21 0 9 -7 13
-19 9 -12 -3 -22 1 -25 9 -6 16 10 25 48 28 23 1 23 2 9 19 -18 19 -29 21 -38
7z"/>
<path d="M6105 5850 c3 -5 8 -10 11 -10 2 0 4 5 4 10 0 6 -5 10 -11 10 -5 0
-7 -4 -4 -10z"/>
<path d="M330 5840 c0 -5 7 -10 16 -10 11 0 14 -6 9 -20 -4 -11 -2 -20 4 -20
12 0 14 20 5 44 -7 17 -34 22 -34 6z"/>
<path d="M1056 5773 c-3 -3 2 -12 12 -19 19 -15 32 -18 32 -6 0 11 -37 32 -44
25z"/>
<path d="M257 5763 c-13 -12 -7 -33 8 -33 8 0 15 9 15 20 0 20 -11 26 -23 13z"/>
<path d="M83 5749 c-25 -9 -34 -22 -38 -55 -3 -33 17 -31 60 7 32 28 40 31 80
26 41 -6 67 5 51 21 -10 9 -129 10 -153 1z"/>
<path d="M227 5682 c-23 -26 -22 -52 3 -52 16 0 20 7 20 35 0 40 -1 41 -23 17z"/>
<path d="M6121 5671 c-7 -5 -9 -11 -4 -14 5 -3 15 -2 22 2 7 5 9 11 4 14 -5 3
-15 2 -22 -2z"/>
<path d="M125 5600 c-3 -5 -1 -10 4 -10 6 0 11 5 11 10 0 6 -2 10 -4 10 -3 0
-8 -4 -11 -10z"/>
<path d="M2 5519 c2 -6 8 -10 13 -10 5 0 11 4 13 10 2 6 -4 11 -13 11 -9 0
-15 -5 -13 -11z"/>
<path d="M30 5274 c0 -8 5 -12 10 -9 6 3 10 10 10 16 0 5 -4 9 -10 9 -5 0 -10
-7 -10 -16z"/>
<path d="M6123 5163 c-31 -12 -37 -22 -34 -49 1 -6 -10 -17 -24 -24 -14 -8
-23 -20 -21 -27 3 -7 1 -13 -4 -13 -6 0 -10 -5 -10 -10 0 -6 11 -8 25 -4 13 3
41 7 62 8 36 3 38 5 41 40 2 20 2 49 0 65 -3 27 -4 27 -35 14z"/>
<path d="M6120 4975 c-14 -8 -34 -14 -46 -15 -11 0 -29 -7 -40 -15 -26 -19
-118 -20 -138 0 -8 8 -19 15 -25 15 -17 0 -23 -40 -11 -71 13 -31 30 -39 30
-14 0 18 1 18 36 1 19 -10 33 -12 45 -5 10 5 26 9 36 9 17 -1 17 -1 0 -11 -11
-6 -24 -12 -30 -14 -11 -2 -29 -8 -71 -24 -16 -6 -17 -9 -5 -21 8 -8 36 -44
63 -80 27 -36 53 -66 58 -68 4 -2 8 -10 8 -19 0 -16 15 -32 48 -50 30 -18 41
-16 63 10 16 20 18 41 19 205 0 100 -3 182 -7 182 -5 -1 -19 -7 -33 -15z m-18
-87 c7 -7 19 -13 26 -13 25 0 11 -20 -15 -21 -32 0 -67 16 -70 34 -4 16 42 16
59 0z"/>
<path d="M0 4936 c0 -18 7 -25 26 -29 32 -6 45 20 19 39 -28 21 -45 17 -45
-10z"/>
<path d="M50 4260 c0 -5 7 -10 16 -10 8 0 12 5 9 10 -3 6 -10 10 -16 10 -5 0
-9 -4 -9 -10z"/>
<path d="M190 3989 c0 -5 5 -7 10 -4 6 3 10 8 10 11 0 2 -4 4 -10 4 -5 0 -10
-5 -10 -11z"/>
<path d="M290 3970 c0 -13 11 -13 30 0 12 8 11 10 -7 10 -13 0 -23 -4 -23 -10z"/>
<path d="M250 3939 c0 -18 2 -19 15 -9 8 7 15 16 15 21 0 5 -7 9 -15 9 -9 0
-15 -9 -15 -21z"/>
<path d="M346 3901 c-4 -5 -2 -12 3 -15 5 -4 12 -2 15 3 4 5 2 12 -3 15 -5 4
-12 2 -15 -3z"/>
<path d="M145 3866 l-30 -13 23 -12 c25 -13 30 -31 8 -31 -17 0 -29 -41 -16
-54 17 -17 56 30 58 70 2 21 5 41 8 46 7 12 -16 9 -51 -6z"/>
<path d="M280 3860 c-13 -9 -13 -11 0 -20 18 -11 39 5 24 20 -6 6 -15 6 -24 0z"/>
<path d="M400 3840 c-12 -8 -11 -10 5 -9 11 1 31 5 45 9 24 8 24 8 -5 9 -16 0
-37 -4 -45 -9z"/>
<path d="M50 3731 c0 -5 5 -13 10 -16 6 -3 10 -2 10 4 0 5 -4 13 -10 16 -5 3
-10 2 -10 -4z"/>
<path d="M400 3660 c0 -11 5 -20 10 -20 6 0 10 9 10 20 0 11 -4 20 -10 20 -5
0 -10 -9 -10 -20z"/>
<path d="M240 3548 c0 -7 -3 -23 -6 -35 -5 -17 -2 -23 9 -23 21 0 33 20 18 29
-6 4 -9 15 -5 24 3 10 1 17 -5 17 -6 0 -11 -6 -11 -12z"/>
<path d="M258 3393 c7 -3 16 -2 19 1 4 3 -2 6 -13 5 -11 0 -14 -3 -6 -6z"/>
<path d="M475 3308 c-10 -23 -31 -24 -29 0 1 7 -11 12 -33 12 l-34 0 21 -27
c14 -18 19 -35 15 -51 -4 -17 0 -28 12 -38 25 -19 33 -17 33 7 0 11 -4 17 -10
14 -21 -13 -9 29 16 52 14 13 24 30 22 39 -2 11 -6 9 -13 -8z"/>
<path d="M2688 3309 c-35 -9 -47 -22 -96 -98 -31 -47 -42 -75 -47 -122 -4 -34
-3 -65 2 -70 6 -6 29 1 59 16 27 15 71 35 99 46 75 31 165 90 165 108 0 24
-44 81 -79 102 -38 23 -68 28 -103 18z"/>
<path d="M355 3299 c-10 -15 3 -25 16 -12 7 7 7 13 1 17 -6 3 -14 1 -17 -5z"/>
<path d="M60 3291 c0 -6 5 -13 10 -16 6 -3 10 1 10 9 0 9 -4 16 -10 16 -5 0
-10 -4 -10 -9z"/>
<path d="M1 3264 c0 -11 3 -14 6 -6 3 7 2 16 -1 19 -3 4 -6 -2 -5 -13z"/>
<path d="M87 3243 c-7 -14 13 -74 23 -68 16 10 12 75 -4 75 -8 0 -17 -3 -19
-7z"/>
<path d="M2 3160 c0 -14 2 -19 5 -12 2 6 2 18 0 25 -3 6 -5 1 -5 -13z"/>
<path d="M3830 3080 c0 -5 7 -10 16 -10 8 0 12 5 9 10 -3 6 -10 10 -16 10 -5
0 -9 -4 -9 -10z"/>
<path d="M477 3053 c-4 -3 -7 -16 -7 -29 0 -29 26 -39 33 -12 9 33 -8 60 -26
41z"/>
<path d="M460 2960 c0 -5 7 -10 15 -10 8 0 15 5 15 10 0 6 -7 10 -15 10 -8 0
-15 -4 -15 -10z"/>
<path d="M4730 2940 c0 -5 5 -10 10 -10 6 0 10 5 10 10 0 6 -4 10 -10 10 -5 0
-10 -4 -10 -10z"/>
<path d="M0 2902 c0 -33 16 -43 27 -16 3 8 -2 23 -11 32 -15 15 -16 14 -16
-16z"/>
<path d="M4910 2885 c0 -8 5 -15 10 -15 6 0 10 7 10 15 0 8 -4 15 -10 15 -5 0
-10 -7 -10 -15z"/>
<path d="M2440 2860 c-12 -8 -12 -10 2 -15 19 -7 38 1 38 16 0 12 -21 11 -40
-1z"/>
<path d="M10 2834 c0 -8 5 -12 10 -9 6 3 10 10 10 16 0 5 -4 9 -10 9 -5 0 -10
-7 -10 -16z"/>
<path d="M193 2825 c-37 -32 -12 -32 35 0 31 21 33 25 15 25 -12 0 -35 -11
-50 -25z"/>
<path d="M77 2803 c-4 -3 -7 -11 -7 -17 0 -6 5 -5 12 2 6 6 9 14 7 17 -3 3 -9
2 -12 -2z"/>
<path d="M206 2705 c-4 -10 1 -15 14 -15 11 0 20 7 20 15 0 8 -6 15 -14 15 -8
0 -16 -7 -20 -15z"/>
<path d="M7 2693 c-13 -12 -7 -33 8 -33 8 0 15 -5 15 -11 0 -6 6 -9 14 -6 8 3
20 -1 26 -9 7 -8 19 -14 27 -14 14 0 17 6 27 52 6 26 5 27 -31 26 -21 -1 -41
-6 -45 -12 -5 -8 -8 -7 -8 2 0 13 -22 17 -33 5z"/>
<path d="M140 2661 c0 -23 0 -44 0 -48 -1 -5 9 -9 20 -11 19 -3 21 1 18 45 -2
36 -7 49 -20 51 -15 3 -18 -4 -18 -37z"/>
<path d="M4730 2660 c0 -5 7 -10 15 -10 8 0 15 5 15 10 0 6 -7 10 -15 10 -8 0
-15 -4 -15 -10z"/>
<path d="M856 2651 c-4 -7 -5 -15 -2 -18 9 -9 19 4 14 18 -4 11 -6 11 -12 0z"/>
<path d="M102 2581 c-17 -48 -17 -48 36 -45 26 1 55 3 65 3 23 1 22 28 -1 40
-14 7 -25 6 -39 -4 -22 -16 -39 -8 -45 20 -3 16 -6 13 -16 -14z"/>
<path d="M5 2561 c-12 -39 0 -151 16 -151 6 0 22 -14 36 -30 27 -32 37 -32 46
0 3 11 2 18 -3 15 -4 -3 -18 11 -31 30 -13 19 -27 35 -31 35 -14 0 -9 28 6 33
7 3 18 24 24 46 l10 41 -33 0 c-24 0 -35 -5 -40 -19z"/>
<path d="M3476 2531 c-9 -10 -13 -21 -9 -24 7 -8 43 -10 43 -3 0 2 3 11 6 19
8 22 -22 28 -40 8z"/>
<path d="M3617 2523 c-12 -11 -7 -57 8 -77 8 -11 15 -14 15 -7 0 7 4 10 8 7
10 -6 8 56 -2 72 -8 13 -19 15 -29 5z"/>
<path d="M3533 2501 c2 -26 24 -41 24 -17 0 8 -4 13 -8 10 -4 -2 -10 4 -13 13
-3 11 -4 9 -3 -6z"/>
<path d="M3470 2475 c0 -8 4 -15 10 -15 5 0 7 7 4 15 -4 8 -8 15 -10 15 -2 0
-4 -7 -4 -15z"/>
<path d="M271 2464 c0 -11 3 -14 6 -6 3 7 2 16 -1 19 -3 4 -6 -2 -5 -13z"/>
<path d="M3560 2427 c-14 -7 -25 -21 -25 -32 0 -10 -6 -20 -13 -23 -6 -2 -12
-11 -12 -20 0 -10 3 -13 8 -7 4 6 23 11 42 13 51 3 60 9 60 34 0 17 -3 19 -12
10 -20 -20 -31 -14 -24 13 7 29 8 28 -24 12z"/>
<path d="M3673 2380 c3 -10 -1 -27 -9 -37 -18 -24 -18 -43 1 -43 8 0 15 -7 15
-15 0 -8 -5 -15 -11 -15 -8 0 -9 -4 0 -13 12 -15 5 -27 -16 -27 -8 0 -13 6
-12 13 3 15 -11 67 -18 67 -3 0 -15 -10 -27 -23 -22 -23 -25 -77 -4 -77 5 0 8
-7 4 -15 -3 -8 -1 -15 4 -15 6 0 10 -8 10 -18 0 -10 5 -23 12 -30 9 -9 6 -12
-15 -12 -24 0 -27 3 -23 25 3 13 0 28 -6 31 -7 4 -8 2 -4 -4 4 -7 2 -12 -4
-12 -6 0 -8 -4 -5 -10 3 -5 0 -7 -8 -4 -8 3 -17 14 -20 24 -5 19 -13 24 -84
50 -25 9 -33 18 -33 37 0 13 -4 22 -9 18 -5 -3 -12 3 -16 14 -4 12 -19 21 -46
25 -47 8 -59 2 -60 -27 0 -15 -3 -17 -6 -7 -4 8 -16 22 -27 32 l-21 17 28 1
c32 0 34 10 9 33 -23 21 -42 22 -42 2 0 -11 -7 -14 -22 -11 -68 14 -98 15
-123 6 -35 -13 -57 -41 -44 -56 6 -8 0 -15 -21 -24 -29 -12 -41 -30 -20 -30 6
0 9 -27 9 -62 -1 -35 -4 -51 -6 -36 -4 23 -7 25 -32 18 -15 -4 -41 -15 -59
-24 -35 -18 -97 -21 -107 -6 -4 6 -11 7 -17 4 -6 -4 -43 -9 -81 -11 -39 -2
-75 -7 -81 -12 -6 -4 -38 -11 -70 -15 -33 -4 -75 -14 -95 -24 -20 -9 -44 -15
-54 -14 -9 2 -29 -6 -43 -17 -15 -12 -30 -21 -35 -21 -12 0 -16 32 -7 58 5 16
4 22 -7 22 -8 0 -15 -6 -15 -13 0 -17 -34 -57 -48 -57 -6 0 -13 6 -15 13 -3 6
-6 0 -6 -15 -1 -16 -10 -37 -21 -48 -11 -11 -20 -24 -20 -30 0 -5 -3 -10 -8
-10 -4 0 -18 -10 -32 -23 -14 -13 -51 -38 -82 -56 -32 -18 -58 -36 -58 -41 0
-11 15 -5 96 37 33 17 66 39 74 48 7 9 33 25 56 36 24 10 63 32 86 47 24 16
61 33 83 39 129 36 170 44 260 52 55 6 143 8 195 6 93 -3 312 -29 327 -38 4
-3 24 -8 44 -11 54 -8 121 -42 135 -68 9 -16 14 -18 15 -8 1 8 5 -12 8 -44 6
-58 7 -59 24 -41 16 15 20 16 27 4 11 -16 3 -26 -24 -31 -26 -4 -22 -22 6 -26
25 -4 50 -22 30 -22 -7 0 -12 -8 -12 -17 0 -13 3 -14 12 -5 18 18 53 14 79 -9
13 -11 18 -18 12 -14 -8 3 -13 0 -13 -8 0 -8 7 -17 15 -21 8 -3 15 -1 15 5 0
6 5 7 10 4 6 -4 8 -11 4 -16 -3 -6 0 -10 7 -8 29 3 50 -1 44 -11 -3 -6 -22 -8
-40 -6 -40 5 -53 -7 -31 -30 9 -8 16 -22 16 -31 0 -10 5 -13 18 -8 9 4 30 9
46 11 22 3 27 1 22 -12 -3 -9 -6 -18 -6 -21 0 -2 -7 3 -17 12 -15 15 -17 15
-25 1 -5 -9 -6 -25 -3 -36 7 -22 35 -27 35 -6 0 9 8 12 25 8 14 -2 25 -11 25
-19 0 -8 -4 -11 -10 -8 -5 3 -10 1 -10 -4 0 -6 5 -11 11 -11 6 0 10 -21 9 -52
-2 -75 -1 -85 8 -71 4 6 20 14 35 17 14 2 32 8 38 12 7 4 10 3 7 -2 -3 -5 0
-15 7 -21 11 -10 14 -8 17 14 3 28 28 45 28 19 0 -9 -4 -16 -10 -16 -5 0 -10
-5 -10 -11 0 -5 5 -7 10 -4 6 3 10 2 10 -4 0 -12 24 -8 42 7 8 6 18 9 21 5 4
-3 9 2 13 11 3 9 13 16 21 16 12 0 13 3 4 14 -10 12 -8 19 8 35 12 12 21 25
21 30 0 13 -32 72 -49 91 -13 13 -12 15 5 19 38 7 46 46 12 55 -20 5 -44 24
-85 68 -7 7 -19 19 -28 26 -9 8 -13 21 -10 32 3 11 10 42 14 70 6 40 5 50 -6
50 -8 0 -13 8 -11 17 2 10 -3 18 -9 19 -7 1 -17 2 -21 3 -12 2 -12 43 0 58 5
7 14 10 19 7 5 -3 9 2 9 10 0 20 -10 20 -24 0 -11 -14 -13 -14 -25 0 -10 12
-9 18 8 33 27 23 27 51 -1 74 -12 11 -22 28 -23 38 0 10 -9 31 -19 46 -13 20
-15 30 -7 38 17 17 13 68 -6 83 -25 19 -36 17 -30 -6z m-488 -103 c-7 -34 -35
-61 -35 -32 0 15 33 76 38 70 2 -1 0 -19 -3 -38z m125 -62 c0 -26 -22 -74 -38
-81 -45 -19 -112 -29 -112 -16 0 6 -11 9 -25 6 -14 -2 -25 0 -25 6 0 5 15 10
34 10 28 0 35 4 38 22 2 17 10 23 28 23 19 0 26 6 28 25 3 24 3 24 -11 6 -10
-13 -16 -15 -21 -8 -4 7 -2 12 3 12 6 0 10 5 9 12 -2 6 8 14 22 18 27 7 70
-14 70 -35z m70 -7 c0 -30 -1 -31 -16 -16 -9 9 -14 24 -11 32 11 27 27 17 27
-16z m384 -67 c-6 -6 -24 19 -24 34 1 6 7 1 15 -9 8 -11 12 -22 9 -25z m-374
-18 c0 -10 -4 -14 -8 -8 -4 6 -11 13 -16 18 -5 4 -2 7 7 7 10 0 17 -8 17 -17z
m60 -178 c0 -8 -4 -15 -10 -15 -5 0 -10 7 -10 15 0 8 5 15 10 15 6 0 10 -7 10
-15z m290 -471 c0 -8 -4 -14 -10 -14 -5 0 -10 9 -10 21 0 11 5 17 10 14 6 -3
10 -13 10 -21z"/>
<path d="M4573 2323 c9 -9 20 -13 24 -9 4 4 1 11 -7 16 -25 16 -35 11 -17 -7z"/>
<path d="M130 2295 c0 -8 4 -15 9 -15 5 0 11 7 15 15 3 9 0 15 -9 15 -8 0 -15
-7 -15 -15z"/>
<path d="M2825 2271 c-10 -17 12 -21 25 -6 10 12 10 15 -3 15 -9 0 -18 -4 -22
-9z"/>
<path d="M2915 2270 c3 -5 13 -10 21 -10 8 0 14 5 14 10 0 6 -9 10 -21 10 -11
0 -17 -4 -14 -10z"/>
<path d="M67 2254 c-11 -11 3 -24 24 -24 12 0 19 5 17 13 -5 14 -31 21 -41 11z"/>
<path d="M2787 2222 c-10 -11 -15 -26 -11 -36 9 -23 23 -20 30 9 9 37 1 49
-19 27z"/>
<path d="M4698 2224 c-5 -4 -8 -16 -8 -28 0 -14 3 -17 11 -9 6 6 9 19 7 28 -1
9 -6 13 -10 9z"/>
<path d="M3802 2201 c-11 -7 -11 -9 2 -14 10 -4 16 -1 16 8 0 17 -1 17 -18 6z"/>
<path d="M4506 2133 c-3 -7 -2 -13 3 -13 5 0 14 6 20 13 8 10 7 14 -4 14 -8 0
-16 -6 -19 -14z"/>
<path d="M4692 2109 c5 -17 48 -25 48 -10 0 6 -4 11 -9 11 -5 0 -17 3 -27 7
-12 4 -15 2 -12 -8z"/>
<path d="M4597 2013 c7 -5 16 -20 22 -33 7 -18 10 -20 10 -7 1 24 21 22 21 -2
0 -11 -4 -23 -10 -26 -5 -3 -10 -11 -10 -17 0 -6 3 -8 7 -5 3 4 13 2 20 -5 12
-10 14 -6 8 23 -3 19 -7 43 -9 54 -2 15 -12 21 -37 23 -20 1 -29 -1 -22 -5z"/>
<path d="M4272 1960 c0 -14 2 -19 5 -12 2 6 2 18 0 25 -3 6 -5 1 -5 -13z"/>
<path d="M4715 1960 c4 -6 11 -8 16 -5 14 9 11 15 -7 15 -8 0 -12 -5 -9 -10z"/>
<path d="M3330 1942 c-22 -27 -21 -39 2 -38 11 0 28 12 37 26 11 17 12 22 2
16 -8 -5 -16 -4 -20 3 -5 7 -12 5 -21 -7z"/>
<path d="M4450 1921 c0 -6 5 -13 10 -16 6 -3 10 1 10 9 0 9 -4 16 -10 16 -5 0
-10 -4 -10 -9z"/>
<path d="M4485 1921 c-3 -5 -1 -12 5 -16 5 -3 10 1 10 9 0 18 -6 21 -15 7z"/>
<path d="M3275 1910 c-3 -5 1 -10 9 -10 9 0 16 5 16 10 0 6 -4 10 -9 10 -6 0
-13 -4 -16 -10z"/>
<path d="M4650 1884 c0 -8 5 -12 10 -9 6 3 10 10 10 16 0 5 -4 9 -10 9 -5 0
-10 -7 -10 -16z"/>
<path d="M4329 1877 c-22 -17 -41 -55 -30 -61 5 -3 14 1 21 9 8 10 23 13 41
10 22 -4 29 -1 29 11 0 15 -26 43 -40 43 -3 0 -12 -5 -21 -12z"/>
<path d="M4466 1844 c-5 -14 -4 -15 9 -4 17 14 19 20 6 20 -5 0 -12 -7 -15
-16z"/>
<path d="M1928 1797 c-16 -6 -28 -14 -28 -18 0 -11 38 2 51 17 6 8 10 14 8 13
-2 -1 -16 -6 -31 -12z"/>
<path d="M4235 1780 c-3 -5 -1 -10 4 -10 6 0 11 5 11 10 0 6 -2 10 -4 10 -3 0
-8 -4 -11 -10z"/>
<path d="M4300 1769 c0 -8 4 -20 9 -27 7 -11 9 -11 14 1 3 9 -1 21 -9 27 -11
10 -14 10 -14 -1z"/>
<path d="M4610 1770 c0 -5 4 -10 9 -10 6 0 13 5 16 10 3 6 -1 10 -9 10 -9 0
-16 -4 -16 -10z"/>
<path d="M4351 1737 c-1 -10 -5 -16 -10 -13 -12 8 -19 -14 -13 -36 5 -22 22
-24 22 -3 0 9 7 18 15 21 8 4 15 13 15 21 0 8 -4 12 -9 9 -5 -4 -12 0 -14 6
-3 8 -6 6 -6 -5z"/>
<path d="M4510 1731 c0 -6 4 -13 10 -16 6 -3 7 1 4 9 -7 18 -14 21 -14 7z"/>
<path d="M4470 1635 c-7 -9 -11 -18 -8 -20 3 -3 11 1 18 10 7 9 11 18 8 20 -3
3 -11 -1 -18 -10z"/>
<path d="M3530 1545 c0 -8 5 -15 10 -15 6 0 10 7 10 15 0 8 -4 15 -10 15 -5 0
-10 -7 -10 -15z"/>
<path d="M4563 1495 c-15 -16 -11 -47 7 -53 7 -3 10 0 7 6 -4 5 0 15 8 22 8 7
15 16 15 20 0 14 -25 18 -37 5z"/>
<path d="M4505 1461 c-3 -5 -1 -12 5 -16 5 -3 10 1 10 9 0 18 -6 21 -15 7z"/>
<path d="M4506 1405 c-6 -17 12 -31 24 -19 5 5 2 14 -5 21 -10 10 -14 9 -19
-2z"/>
<path d="M3838 1313 c7 -3 16 -2 19 1 4 3 -2 6 -13 5 -11 0 -14 -3 -6 -6z"/>
<path d="M3865 1300 c-3 -5 -1 -10 4 -10 6 0 11 5 11 10 0 6 -2 10 -4 10 -3 0
-8 -4 -11 -10z"/>
<path d="M3922 1281 c-11 -7 -11 -9 1 -14 10 -4 14 -14 10 -29 -4 -23 -4 -23
12 -3 8 11 11 21 6 23 -5 2 -7 10 -4 18 6 16 -5 18 -25 5z"/>
<path d="M3871 1234 c0 -11 3 -14 6 -6 3 7 2 16 -1 19 -3 4 -6 -2 -5 -13z"/>
<path d="M4006 1209 c3 -5 -3 -12 -13 -16 -10 -4 -24 -13 -32 -20 -8 -9 -28
-12 -52 -9 -35 4 -39 2 -39 -18 0 -12 -6 -28 -12 -35 -11 -10 -10 -11 4 -6 9
4 18 15 21 26 3 11 14 19 25 19 30 0 33 -12 12 -40 -18 -24 -18 -24 7 -37 30
-16 33 -16 33 -4 0 5 5 22 12 38 6 15 11 31 10 36 -1 4 1 6 6 6 19 -3 30 2 36
19 3 9 8 22 11 28 3 6 -3 14 -15 17 -11 3 -17 1 -14 -4z"/>
<path d="M3790 1180 c0 -6 7 -10 15 -10 8 0 15 2 15 4 0 2 -7 6 -15 10 -8 3
-15 1 -15 -4z"/>
<path d="M4510 1151 c0 -6 4 -13 10 -16 6 -3 7 1 4 9 -7 18 -14 21 -14 7z"/>
<path d="M4145 1100 c-3 -5 -1 -10 4 -10 6 0 11 5 11 10 0 6 -2 10 -4 10 -3 0
-8 -4 -11 -10z"/>
<path d="M4430 1025 c0 -8 2 -15 4 -15 2 0 6 7 10 15 3 8 1 15 -4 15 -6 0 -10
-7 -10 -15z"/>
<path d="M3630 783 c0 -6 -3 -18 -6 -27 -3 -9 -1 -16 5 -16 17 0 25 30 12 43
-8 8 -11 8 -11 0z"/>
<path d="M3550 650 c0 -5 7 -7 15 -4 8 4 15 8 15 10 0 2 -7 4 -15 4 -8 0 -15
-4 -15 -10z"/>
<path d="M3430 615 c0 -19 9 -19 34 0 19 14 19 15 -7 15 -17 0 -27 -5 -27 -15z"/>
<path d="M3470 600 c0 -5 -6 -10 -12 -10 -7 0 -14 -14 -15 -30 -2 -33 11 -40
22 -12 9 21 15 62 9 62 -2 0 -4 -4 -4 -10z"/>
<path d="M3386 481 c-4 -5 -2 -12 3 -15 5 -4 12 -2 15 3 4 5 2 12 -3 15 -5 4
-12 2 -15 -3z"/>
<path d="M3284 428 c-7 -11 22 -21 36 -13 5 3 10 10 10 15 0 11 -40 9 -46 -2z"/>
<path d="M2587 207 c-15 -12 -27 -27 -27 -32 0 -4 11 2 24 14 18 17 25 19 29
9 3 -8 6 -5 6 7 1 17 3 17 11 5 8 -13 10 -12 10 3 0 24 -22 21 -53 -6z"/>
<path d="M2351 138 c-1 -10 -5 -18 -11 -18 -5 0 -10 -5 -10 -12 0 -8 6 -7 16
4 9 9 14 22 11 30 -4 9 -6 7 -6 -4z"/>
</g>
</svg>
